<svg width="106" height="38" fill="none" xmlns="http://www.w3.org/2000/svg"><g clip-path="url(#a)" fill="#666"><path d="M18.464 7.22c6.845.066 11.937 4.9 13.171 10.655 1.468 6.84-2.43 13.604-8.955 15.743-7.553 2.477-15.485-2.026-17.278-9.683-1.094-4.674.024-8.866 3.267-12.425 2.076-2.28 4.69-3.63 7.745-4.114.285-.045.571-.089.859-.112.403-.032.807-.044 1.191-.064Zm4.01 15.956c.302.424.646.768 1.2.768.393 0 .786-.017 1.178-.024.214-.004.428 0 .655 0 0 .182.006.332 0 .48-.048 1.014-.105 2.027-.145 3.041-.028.738-.036 1.476-.052 2.214.158.38.018.682-.244.955-.01.01 0 .037 0 .103 3.125-2.332 4.961-5.354 5.219-9.248.14-2.114-.282-4.131-1.232-6.031-.5-1.002-1.12-1.92-1.91-2.75l-2.323 2.519c.227.173.443.308.622.483.997.973 1.48 2.181 1.578 3.553.051.723-.152 1.393-.477 2.028a1.65 1.65 0 0 1-.332.44c-.527.497-1.121.886-1.829 1.084-.62.174-1.242.35-1.909.385ZM6.76 19.643c-.265 2.257.13 4.396 1.129 6.42a11.035 11.035 0 0 0 2.083 2.941c.206-.44.539-.649.941-.77.356-.108.704-.084 1.057.017.287.081.422.303.56.532.01.016.037.022.087.051l1.795-1.967c-.03-.037-.035-.048-.044-.055-.047-.034-.095-.067-.14-.101-.63-.466-.946-1.095-.936-1.874.017-1.432 1.017-2.51 2.448-2.673a5.105 5.105 0 0 1 1.539.044c-.021-.047-.025-.072-.04-.087-.68-.693-1.369-1.376-2.143-1.968a.656.656 0 0 0-.446-.135c-1.017.024-2.035.039-3.051.068-1.329.037-2.657.086-3.986.127-.24.008-.479.001-.73.001l-.123-.571Zm6.23-1.525c.06-.117.11-.234.174-.343.377-.648.739-1.305 1.14-1.938.32-.504.82-.78 1.402-.87.398-.062.805-.058 1.208-.087.137-.01.278-.016.408-.055.059-.017.094-.11.14-.17-.059-.042-.117-.123-.176-.122-.253.002-.507.037-.76.041-.276.005-.556.017-.827-.023-.396-.058-.508-.203-.545-.594-.031-.331.12-.475.45-.415.363.067.722.156 1.087.21.57.086.994-.36.898-.928-.044-.259-.206-.43-.47-.416-.188.009-.387.07-.552.161a1.767 1.767 0 0 1-.995.24c-.215-.015-.389-.102-.457-.311-.086-.261-.18-.528-.207-.799-.052-.535.179-.875.683-1.076.171-.068.35-.12.528-.166a9.48 9.48 0 0 1 3.06-.275c.469.036.942.115 1.393.244.478.137.52.341.276.706-.019.03-.034.06-.053.09-.118.177-.107.344.03.508.074.088.143.181.211.274.545.739 1.013 1.517 1.246 2.416.021.082.058.16.088.241.247-.859.594-1.628 1.297-2.202.71-.579 1.56-.678 2.46-.715-3.992-3.631-10.58-3.895-14.9-.34.148.175.297.35.445.527.388.465.375.968.023 1.499-.089.134-.195.255-.305.398.613.699 1.38 1.225 2.043 1.866l-.867 1.913-3.783-3.262.119-.465c-.581.713-1.012 1.505-1.36 2.36.078.034.14.068.204.087.543.166.853.528.928 1.09.018.137.033.274.052.411.016.122.036.243.053.355 1.4.143 2.68.224 4.212-.065Zm4.23 9.082c-.086.094-.123.137-.163.178-1.098 1.127-2.107 2.331-3.084 3.562-.194.245-.39.316-.672.292-.122-.01-.26-.079-.413.056 2.867 1.418 5.8 1.752 8.884.905a2.516 2.516 0 0 1-.287-1.208c.002-.606.282-1.037.848-1.263.224-.09.46-.148.694-.212.378-.104.424-.16.391-.558-.044-.54-.096-1.08-.148-1.62-.01-.108-.036-.216-.056-.336l-.314.06a4.164 4.164 0 0 1-2.157-.119c-.248-.082-.506-.19-.707-.352-.584-.471-1.053-1.036-1.258-1.78-.076-.276-.16-.549-.255-.877-.167.14-.316.245-.442.373-.33.34-.661.68-.972 1.036a8.503 8.503 0 0 0-.604.801c-.15.22-.127.302.075.47.098.08.213.142.305.227.114.107.213.23.335.365Zm3.002-7.35c.02.03.055.103.108.162.8.882 1.785 1.297 2.978 1.102.607-.1 1.072-.442 1.284-1.036a2.37 2.37 0 0 0 .044-1.459c-.328-1.195-1.065-2.133-1.841-3.052-.033-.039-.084-.06-.127-.09-.027.04-.047.058-.05.078-.147.872-.492 1.677-.866 2.47-.093.197-.194.4-.337.561-.374.422-.773.822-1.193 1.263Z"/><path d="M26.426 8.123h10.241c.034.069.075.137.103.21.735 1.945 1.187 3.952 1.287 6.031.194 3.998-.845 7.647-3.134 10.937-1.41 2.027-3.08 3.8-5.102 5.233-.094.067-.187.138-.29.19-.052.027-.124.017-.2.026-.005-.186.129-.262.213-.36a14.708 14.708 0 0 0 2.866-5.094c.407-1.258.656-2.546.69-3.87.075-3.066-.559-5.958-2.166-8.599-1.073-1.761-2.505-3.19-4.178-4.385-.12-.086-.24-.173-.358-.26l.028-.059ZM1.227 11.961h5.496c-.202.302-.383.56-.552.827a15.146 15.146 0 0 0-.925 1.662 15.427 15.427 0 0 0-.969 2.698 14.366 14.366 0 0 0-.343 1.87 14.491 14.491 0 0 0-.09 1.9c.003.324.01.647.032.969.023.31.062.62.105.928.045.32.095.64.16.955.064.316.144.63.23.94.083.3.176.598.28.892a15.486 15.486 0 0 0 .755 1.782 15.241 15.241 0 0 0 .965 1.64c.175.258.367.504.548.758.178.25.418.463.578.78-.23.039-.327-.055-.412-.135-.471-.442-.964-.865-1.396-1.343-1.802-1.994-3.026-4.319-3.848-6.863-.498-1.541-.857-3.114-1.016-4.727a17.053 17.053 0 0 1 .337-5.366c.013-.054.041-.104.065-.167ZM25.668 4.913c-.087.025-.173.053-.26.073a.916.916 0 0 1-1.116-.677c-.187-.766.405-1.698 1.179-1.857.723-.148 1.513.494 1.522 1.23.004.38-.11.727-.264 1.066-.237.521-.547.986-.997 1.353-.61.497-1.302.34-1.764.006-.439-.318-.501-.718-.193-1.197l.32.086c-.048.087-.082.145-.113.206-.13.254-.115.498.04.678.164.191.446.28.693.16.202-.097.404-.231.553-.397.181-.202.308-.453.459-.684l-.059-.046Zm-.267-.078c.053-.021.163-.04.241-.1.49-.382.774-.89.815-1.504.026-.376-.397-.586-.714-.38a.758.758 0 0 0-.25.234c-.2.349-.386.706-.565 1.065a.563.563 0 0 0-.037.27c.014.254.21.425.51.415ZM15.595 2.622c.15.072.281.137.415.197.747.334.812 1.406.237 1.89-.468.396-.999.516-1.582.336-.859-.265-1.066-1.241-.423-1.759.027-.022.056-.042.105-.078-.064-.058-.106-.107-.158-.141-.464-.308-.635-.667-.523-1.21.092-.444.549-.821 1.046-.885.159-.02.324-.022.483-.001.72.091 1.03.847.592 1.427-.054.071-.116.136-.192.224Zm.492 1.493c0-.326-.155-.561-.457-.663-.27-.091-.558-.133-.838-.197-.17-.039-.283.04-.382.17a.867.867 0 0 0-.026 1.06c.24.34.714.505 1.103.384.374-.118.602-.405.6-.754Zm-.393-2.102c-.043-.365-.24-.655-.552-.77a.841.841 0 0 0-.887.217c-.25.275-.212.688.12.849.264.127.565.181.855.245.07.015.19-.037.233-.097.096-.135.157-.295.232-.444ZM19.152 1.337l.18-.637 2.594.377c.035.326-.08.533-.281.736-.78.784-1.237 1.737-1.417 2.825-.013.08-.032.157-.056.275l-.831-.11c.217-1.3.907-2.287 1.939-3.149l-2.128-.317ZM8.75 4.585l-.183-.313c.363-.323.612-.7.582-1.206.13-.075.25-.143.41-.237l1.987 3.529-.644.381-1.597-2.831-.555.677ZM68.332 22.267h1.648v7.842l.7.038v2.064c-.414.043-.837.013-1.303.016v-1.499h-9.052v-8.411c.283-.088 1.046-.106 1.612-.032v7.82h2.381V22.27h1.644c.021 1.304.006 2.608.01 3.913.002 1.296 0 2.591 0 3.918h2.36v-7.833ZM76.066 22.264h1.714V30.7h-1.609v-6.668l-.1-.018-2.465 6.692H71.96c-.092-.3-.128-7.6-.042-8.428h1.612v6.668l.1.017 2.436-6.699ZM104.289 12.807l-2.463 6.69h-1.641c-.084-.317-.112-7.808-.032-8.432h1.564v6.719l.096.02c.452-1.107.827-2.244 1.243-3.366.417-1.123.818-2.25 1.229-3.383h1.708v8.46h-1.6v-6.693l-.104-.015ZM49.39 22.851h-2.646v7.846h-1.612v-8.424h5.877c.003 2.803 0 5.598.002 8.423h-1.622V22.85ZM58.977 26.468c-.005.713-.105 1.41-.256 2.11-.4 1.84-2.143 2.472-3.535 2.264-1.075-.16-1.803-.734-2.215-1.744-.46-1.129-.538-2.297-.439-3.49a6.36 6.36 0 0 1 .403-1.701c.436-1.17 1.314-1.733 2.521-1.806.398-.025.812.018 1.203.102.814.174 1.399.657 1.75 1.42.418.904.575 1.858.568 2.845Zm-1.71.112-.059-.002c0-.417.003-.835-.001-1.253a7.562 7.562 0 0 0-.03-.585c-.05-.542-.11-1.08-.382-1.57-.215-.39-.536-.589-.982-.599-.588-.013-.994.216-1.213.772-.136.346-.253.721-.27 1.088a58.005 58.005 0 0 0-.063 3.3c.006.61.073 1.224.305 1.804.204.51.562.832 1.122.865.575.035.95-.282 1.173-.778.113-.25.215-.523.242-.793.075-.748.108-1.5.158-2.25ZM97.313 19.516l-2.244-4.197c-.368.31-.613.622-.587 1.138.043.863.011 1.73.011 2.594v.437h-1.63v-8.427h1.636v3.793l.076.022c.088-.1.182-.195.264-.298.829-1.035 1.655-2.072 2.482-3.108.249-.312.612-.446 1.089-.404-.758.967-1.525 1.877-2.272 2.823l3.002 5.596c-.337.057-.637.023-.932.029-.293.006-.585.002-.895.002ZM46.793 11.648v2.891c.478 0 .935-.01 1.391.004.32.01.647.019.954.094 1.159.286 1.805 1.102 1.83 2.289.005.263.003.535-.052.79-.21.976-1.062 1.682-2.127 1.778-.264.023-.53.02-.796.021-.81.003-1.622.002-2.433 0-.136 0-.272-.012-.428-.02V11.11c.285-.09 4.332-.119 4.944-.032v.57h-3.283Zm.004 3.474v3.88c.44-.024.858-.018 1.267-.073.636-.085 1.028-.474 1.177-1.091a2.774 2.774 0 0 0-.14-1.802c-.176-.4-.455-.701-.888-.829-.462-.136-.931-.123-1.416-.085ZM53.482 19.467v-7.821c-.335-.005-.65-.012-.964-.014-.318-.003-.636 0-.974 0v-.566h3.593v3.452c.182.01.318.02.455.021.46.005.923-.013 1.383.011 1.906.103 3.007 2.016 2.125 3.71-.415.798-1.14 1.194-2.014 1.23-1.145.047-2.292.018-3.438.02-.04 0-.079-.02-.166-.043Zm1.678-.489c.386 0 .723.026 1.054-.005.81-.077 1.28-.48 1.429-1.24.114-.584.08-1.167-.18-1.72-.14-.298-.339-.543-.632-.703-.39-.213-1.206-.28-1.67-.133l-.001 3.801ZM78.505 11.039c.967 0 1.9-.006 2.834.004.291.003.59.02.871.086.35.082.697.2 1.027.343.5.218.817.613.98 1.134a2.93 2.93 0 0 1 .044 1.69 1.906 1.906 0 0 1-1.074 1.265 4.618 4.618 0 0 1-1.907.417c-.36.004-.72 0-1.13 0v3.51h-1.645v-8.45Zm1.657 4.403c.513-.052.976-.061 1.422-.152.583-.119.97-.49 1.076-1.091a3.19 3.19 0 0 0-.056-1.452c-.122-.422-.367-.752-.77-.944-.538-.256-1.103-.206-1.672-.158v3.797ZM77.456 19.497h-1.652l-.551-2.006a148 148 0 0 0-2.723 0l-.576 1.998h-.634l2.409-8.431h1.41c.77 2.803 1.54 5.605 2.317 8.44Zm-3.483-6.813-.09-.007-1.182 4.171c.478.08 2.044.065 2.387-.026l-1.115-4.138ZM91.281 13.386l-.694.342c0-.172.015-.293-.003-.41-.045-.287-.076-.582-.166-.855-.179-.54-.538-.916-1.123-1.007-.65-.102-1.237.033-1.634.602-.18.26-.349.55-.43.851a9.088 9.088 0 0 0-.013 4.713c.075.29.228.57.395.822.716 1.075 2.264.784 2.795-.031.258-.397.402-.826.415-1.297.007-.25.001-.499.001-.803l.661.181c.118.402.06.787-.036 1.163-.298 1.163-1.203 1.912-2.453 1.987-.44.026-.896-.02-1.33-.11-.823-.168-1.436-.65-1.85-1.387a4.62 4.62 0 0 1-.565-1.782c-.144-1.318.003-2.584.657-3.77.846-1.534 2.384-1.853 3.64-1.614.962.184 1.566.896 1.694 1.934.018.137.023.277.04.47ZM65.89 19.498h-1.658l-1.703-6.785c-.705 2.241-1.272 4.513-1.898 6.777h-.633l2.291-8.432h1.402c.727 2.787 1.455 5.585 2.198 8.44ZM66.877 11.051h4.677v.576h-3.043v7.853h-1.634V11.05Z"/></g><defs><clipPath id="a"><path fill="#fff" transform="translate(.746 .7)" d="M0 0h105.002v36.601H0z"/></clipPath></defs></svg>