<svg width="126" height="36" fill="none" xmlns="http://www.w3.org/2000/svg"><g clip-path="url(#a)" fill="#666"><path d="M125.065 29.582H34.759v.185h90.306v-.184ZM.124 0s.162 8.873 3.852 14.33c2.435 3.608 2.951 4.162 2.951 6.78C6.971 24.43 4.64 36 4.64 36s3.283-12.14 3.187-16.206c-.08-3.402-1.844-5.117-3.578-7.49C1.069 7.919.124 0 .124 0Z"/><path d="M10.454 20.015c.922-4.436 2.273-5.176 2.819-9.944a7.91 7.91 0 0 0-3.667-7.816v7.357c-2.214-.48-1.3-2.994-1.793-3.948C6.986 4.044.973.392.973.392s4.316 3.527 5.63 6.16c.9 1.73.678 3.8 3.003 4.539v23.66h2.021c-.848-2.743-2.413-8.932-1.173-14.736ZM9.635 2.27s6.264 2.344 4.988 9.072a15.161 15.161 0 0 1-1.808 4.377c1.963-1.36 6.161-4.436 6.538-5.915.17-.672-.48-.88-1.292-1.042a19.63 19.63 0 0 0-3.018-.251c1.026-.14 2.067-.2 3.107-.17 1.35.066 2.597.25 2.745.857.472 1.908-7.246 5.25-8.759 7.926a16.63 16.63 0 0 0-1.04 3.061 17.4 17.4 0 0 0 3.047 14.566h11.208V.326L9.635 2.27ZM95.809 14.788H84.586v2.388h4.206v9.19h2.863v-9.19h4.154v-2.388ZM58.127 14.788v8.466a.779.779 0 0 1-.783.784h-4.921a.783.783 0 0 1-.79-.777v-8.473h-2.81v9.464a2.217 2.217 0 0 0 2.213 2.115h7.718c1.21 0 2.191-.969 2.213-2.181v-9.398h-2.84ZM66.634 24.038a1.177 1.177 0 0 1-1.18-1.117v-8.133h-2.612v9.398a2.218 2.218 0 0 0 2.213 2.173h4.649l1.254-2.321h-4.324ZM109.57 21.354a2.219 2.219 0 0 0-2.155-2.063h-6.891a.74.74 0 0 1-.672-.666v-.843a.734.734 0 0 1 .672-.702h5.334a.664.664 0 0 1 .738.584v.155h2.62v-.857a2.214 2.214 0 0 0-2.103-2.174h-7.748a2.212 2.212 0 0 0-2.176 2.1v2.492a2.22 2.22 0 0 0 2.213 2.136h6.833a.7.7 0 0 1 .671.629v1.22a.739.739 0 0 1-.738.673h-5.785a.74.74 0 0 1-.737-.74v-.214h-2.657v1.028c0 1.197.945 2.18 2.14 2.218h8.198c1.18 0 2.154-.924 2.213-2.107l.03-2.87ZM47.125 22.226a2.089 2.089 0 0 0-1.933-2.085h-.06c.96.037 1.772-.695 1.838-1.656v-1.79a1.96 1.96 0 0 0-1.904-1.907H34.803v11.579h10.389c1.04 0 1.896-.829 1.933-1.871v-2.27Zm-2.73-4.62v.879a.81.81 0 0 1-.738.799h-6.095v-2.485h6.095c.413.044.73.392.738.806Zm.2 5.714a.888.888 0 0 1-.879.74h-6.154v-2.618h6.324c.413.03.73.37.738.784l-.03 1.094Z"/><path fill-rule="evenodd" clip-rule="evenodd" d="M80.182 24.873c0 .954-.768 1.73-1.72 1.738a1.735 1.735 0 0 1-1.734-1.723c0-.954.768-1.73 1.72-1.738h.015a1.72 1.72 0 0 1 1.719 1.708v.015"/><path d="M85.996 26.366s-5.756-10.58-6.029-11.09a1.858 1.858 0 0 0-2.995 0l-6.014 11.09h3.158l4.368-8.488 4.383 8.488h3.129ZM125.08 26.366s-5.748-10.58-6.029-11.09a1.858 1.858 0 0 0-2.995 0l-6.043 11.09h3.158l4.375-8.488 4.383 8.488h3.151ZM35.26 34.75h-.501v-2.32h1.475c.392 0 .842.08.842.739 0 .658-.384.739-1.04.739h-.739v.843h-.036Zm0-1.234h.657c.546 0 .627-.066.627-.318 0-.251 0-.318-.383-.318h-.9v.636ZM38.958 34.75H37.6v-1.9h-.51v-.42h1.012v.88h.848c.487 0 .945.088.945.738 0 .651-.502.703-.937.703Zm-.856-.428h.84c.444 0 .444-.104.444-.274 0-.17 0-.295-.495-.295h-.79v.569ZM42.964 34.729h-.746l-1.35-.984-.133.008v.975h-.502V32.43h.502v.909h.192l1.1-.888.472-.022h.302l-.25.2-1.181.917 1.328.983.266.2Z"/><path d="M44.115 34.751c-.944 0-1.276-.177-1.276-1.168 0-.99.34-1.176 1.284-1.176s1.276.178 1.276 1.176-.34 1.168-1.284 1.168Zm0-1.922c-.738 0-.782.081-.782.739s.052.74.782.74.738-.082.738-.74-.037-.74-.738-.74ZM47.236 34.75H45.7v-2.32h1.476c.347 0 .812.066.812.62a.539.539 0 0 1-.17.459.503.503 0 0 1 .265.502c0 .474-.265.74-.819.74h-.03Zm-1.004-.428h.783c.509 0 .568-.052.568-.266 0-.215 0-.274-.436-.274h-.944l.03.54Zm0-.961h.805c.442 0 .457-.089.457-.266 0-.178 0-.215-.34-.215h-.951l.03.48ZM49.56 34.751c-.944 0-1.276-.177-1.276-1.168 0-.99.332-1.176 1.284-1.176s1.276.178 1.276 1.176-.331 1.168-1.283 1.168Zm0-1.922c-.737 0-.774.081-.774.739s.052.74.775.74.737-.082.737-.74 0-.74-.737-.74ZM53.781 35.202h-.472v-.451h-1.823v.48h-.45v-.924h.229a.964.964 0 0 0 .236-.695V32.43h2.103v1.878h.206v.895h-.029Zm-1.963-.895h1.255v-1.479h-1.107v.74c.022.259-.03.51-.148.74ZM55.154 34.751c-.849 0-1.225-.17-1.225-1.168 0-.998.39-1.176 1.225-1.176.833 0 1.121.178 1.173.784v.081h-.487v-.088c0-.289-.052-.385-.68-.385-.626 0-.737.118-.737.74 0 .62.11.739.738.739.627 0 .738-.118.738-.407v-.103h.494v.103c0 .695-.406.828-1.21.828M57.824 34.729h-.502v-1.871H56.393v-.428h2.346v.428H57.824v1.87ZM60.496 34.75H58.96v-2.32h1.476c.346 0 .811.066.811.62a.539.539 0 0 1-.17.459c.185.103.281.303.252.51 0 .473-.266.74-.82.74l-.014-.008Zm-1.019-.42h.783c.509 0 .568-.052.568-.267 0-.214 0-.273-.436-.273h-.93l.015.54Zm0-.962h.805c.435 0 .457-.089.457-.266 0-.177 0-.214-.34-.214h-.936l.014.48ZM62.842 34.751c-.944 0-1.277-.177-1.277-1.168 0-.99.333-1.176 1.284-1.176.952 0 1.277.178 1.277 1.176s-.354 1.168-1.284 1.168Zm0-1.922c-.738 0-.738.081-.738.739s.052.74.738.74c.686 0 .738-.082.738-.74s0-.74-.738-.74ZM67.859 34.729h-.502v-.961h-1.46v.96h-.503V32.43h.502V33.352h1.461V32.43h.502V34.727ZM70.958 34.751h-.59v-.059l-.185-.37H68.84l-.199.37v.06h-.553l.074-.164 1.033-2.077v-.06h.568v.06l1.048 2.077.147.163Zm-1.903-.85h.93l-.503-.969-.427.969ZM73.6 34.75h-1.535v-2.32h1.475c.347 0 .812.066.812.62a.534.534 0 0 1-.163.459.504.504 0 0 1 .244.51c0 .473-.266.74-.812.74l-.022-.008Zm-1.012-.42h.738c.517 0 .568-.052.568-.267 0-.214 0-.273-.435-.273h-.893l.022.54Zm0-.962h.805c.435 0 .457-.089.457-.266 0-.177 0-.214-.347-.214h-.937l.022.48ZM76.352 34.75h-1.35v-1.9h-.517v-.42h1.011v.88h.849c.487 0 .944.088.944.738 0 .651-.502.703-.937.703Zm-.856-.428h.841c.45 0 .45-.104.45-.274 0-.17 0-.295-.501-.295h-.79v.569ZM78.772 34.751c-.805 0-1.196-.103-1.196-.688v-.103l.096-.074h.398v.177c0 .2 0 .267.738.267s.687-.163.687-.296c0-.133 0-.266-.495-.266h-.738v-.422H79c.458 0 .458-.081.458-.273 0-.193-.045-.244-.635-.244s-.627.103-.65.325v.096h-.575v-.11c0-.674.517-.74 1.144-.74.627 0 1.144.103 1.144.628a.572.572 0 0 1-.207.496c.184.11.28.318.25.525 0 .569-.471.687-1.187.687M82.904 35.202h-.472v-.451h-1.823v.48h-.48v-.924h.23a.963.963 0 0 0 .236-.695V32.43h2.103v1.878h.206v.895Zm-1.962-.895h1.261v-1.479h-1.106v.74c.022.259-.03.51-.155.74ZM83.878 34.75H83.5v-.443h.28c.141 0 .185 0 .222-.081L83 32.599l-.103-.17h.568v.052l.774 1.301.738-1.301v-.052h.554l-.096.17-.989 1.753a.648.648 0 0 1-.605.377M89.743 34.729H85.73V32.43h.502v1.87h1.255v-1.87h.501v1.87h1.247v-1.87h.509V34.727ZM92.651 34.729h-.502v-.961h-1.468v.96h-.495V32.43h.495V33.352h1.468V32.43h.502V34.727ZM94.26 34.751c-.945 0-1.284-.177-1.284-1.168 0-.99.339-1.176 1.29-1.176.953 0 1.277.178 1.277 1.176s-.34 1.168-1.284 1.168Zm0-1.922c-.738 0-.738.081-.738.739s.044.74.737.74c.694 0 .738-.082.738-.74s-.044-.74-.737-.74M97.056 34.729h-.509v-1.871H95.625v-.428h2.339v.428H97.056v1.87ZM99.366 34.751c-.945 0-1.284-.177-1.284-1.168 0-.99.34-1.176 1.291-1.176.952 0 1.277.178 1.277 1.176s-.34 1.168-1.284 1.168Zm0-1.922c-.738 0-.775.081-.775.739s.044.74.775.74c.73 0 .775-.082.775-.74s-.037-.74-.775-.74ZM104.553 35.202h-.473v-.451h-1.822v.48h-.48v-.924h.229a.991.991 0 0 0 .229-.695V32.43h2.11v1.878h.207v.895Zm-1.963-.895h1.262v-1.479h-1.107v.74c.022.259-.037.51-.155.74ZM106.376 34.75h-1.535v-2.32h1.476c.346 0 .811.066.811.62a.535.535 0 0 1-.162.459.503.503 0 0 1 .243.51c0 .473-.265.74-.811.74l-.022-.008Zm-1.011-.42h.774c.517 0 .569-.052.569-.267 0-.214 0-.273-.436-.273h-.907v.54Zm0-.962h.804c.435 0 .45-.089.45-.266 0-.177 0-.214-.332-.214h-.922v.48ZM110.101 34.729h-.501V32.984l-1.447 1.708-.029.037h-.635V32.43h.502V34.188l1.446-1.723.03-.037h.634v2.299ZM114.772 34.729h-.738l-1.158-.991-.118.015v.975h-.502v-.968h-.184l-1.041.94-.509.029h-.288l.229-.2 1.173-.983-.974-.925-.199-.192h.657l1.011.932.125-.015v-.916h.502v.909h.177l.9-.88.45-.03h.258l-.199.192-.974.925 1.173.983.229.2ZM116.845 34.721h-1.999V32.43h2.007v.421h-1.506v.495h1.432v.414h-1.432v.54h1.498v.421ZM119.65 34.721h-.502v-.953h-1.469v.953h-.501V32.437h.501V33.352h1.469V32.437h.502V34.72ZM122.682 34.721h-.495V32.976l-1.453 1.716-.03.03h-.627v-2.285h.502v1.759l1.439-1.73.029-.03h.635v2.285ZM125.109 34.721h-1.992V32.437h2.007v.414h-1.512v.495H125.05v.414H123.612v.547h1.497v.414Z"/></g><defs><clipPath id="a"><path fill="#fff" transform="translate(.124)" d="M0 0h125v36H0z"/></clipPath></defs></svg>