<svg width="67" height="42" fill="none" xmlns="http://www.w3.org/2000/svg"><g clip-path="url(#a)" fill="#666"><path d="M25.286 18.316c-1.184 0-1.936.77-2.17 1.793h4.213c-.143-1.128-.933-1.793-2.043-1.793ZM14.028 18.764c-1.507 0-2.457 1.04-2.457 2.492s.968 2.509 2.457 2.509c1.489 0 2.491-1.022 2.491-2.51 0-1.486-1.004-2.49-2.491-2.49Z"/><path d="M44.428 16.381c-2.261 0-4.022.903-4.31 3.248-.02.002.014 0-.007 0C39.4 9.002 31.017.6 20.211.6 11.67.6 4.36 5.85 1.318 13.297h7.24l-.376 2.437H2.501v2.582h5.145l-.394 2.349h-4.75v1.506c0 .914.393 1.345 1.146 1.345h4.858l-.394 2.437H2.733c-.262 0-.51-.024-.748-.066 0 0-.931-.1-1.508-.85-.014-.017-.25-.296-.365-.754-.03-.12-.033-.128-.055-.222.038.304.103.712.132.862.164.85.372 1.57.39 1.621 2.417 8.571 10.288 14.857 19.631 14.857 9.344 0 17.633-6.575 19.845-15.446h-2.742v-4.983c0-1.345-.52-2.206-1.847-2.206s-1.846.861-1.846 2.206v4.983h-2.743V20.29c0-2.708 1.972-3.907 4.59-3.907 2.616 0 4.588 1.201 4.588 3.907v5.665h2.759v-4.983c0-1.345.359-2.206 1.666-2.206.414 0 .914.126 1.094.215l.52-2.403c-.302-.037-1.073-.197-1.666-.197Zm-25.149 4.32c0 3.425-2.026 5.432-5.379 5.432-3.101 0-5.199-2.08-5.199-4.877 0-2.797 1.99-4.877 4.966-4.877 1.361 0 2.366.537 2.868 1.076v-4.158h2.742V20.7h.002Zm6.92 3.37c.808 0 1.554-.233 2.255-.555l-.229 2.169c-.788.322-1.738.448-2.688.448-3.156 0-5.379-1.847-5.379-4.983 0-2.726 1.99-4.769 5.037-4.769 3.442 0 5.163 2.186 5.091 5.557h-7.098c.269 1.543 1.739 2.134 3.011 2.134ZM50.65 16.381c-3.048 0-5.038 2.043-5.038 4.769 0 3.136 2.223 4.983 5.379 4.983.95 0 1.9-.126 2.688-.448l.229-2.17c-.7.323-1.447.557-2.253.557-1.273 0-2.742-.591-3.01-2.134h7.099c.068-3.37-1.653-5.557-5.095-5.557Zm-2.08 3.73c.233-1.022.986-1.793 2.168-1.793 1.112 0 1.9.663 2.044 1.792h-4.213ZM63.88 13.297v4.158c-.503-.537-1.507-1.076-2.869-1.076-2.976 0-4.966 1.955-4.966 4.877 0 2.922 2.098 4.877 5.2 4.877 3.353 0 5.379-2.009 5.379-5.431v-7.405h-2.745Zm-2.512 10.47c-1.487 0-2.456-1.076-2.456-2.51 0-1.433.95-2.49 2.456-2.49 1.507 0 2.492 1.003 2.492 2.49 0 1.488-1.002 2.51-2.492 2.51Z"/></g><defs><clipPath id="a"><path fill="#fff" transform="translate(.057 .6)" d="M0 0h66.567v40.801H0z"/></clipPath></defs></svg>