<svg width="72" height="46" fill="none" xmlns="http://www.w3.org/2000/svg"><g clip-path="url(#a)"><path d="M62.526 2.158a7.579 7.579 0 0 1 7.58 7.579v26.526a7.579 7.579 0 0 1-7.58 7.58H9.474a7.579 7.579 0 0 1-7.58-7.58V9.737a7.579 7.579 0 0 1 7.58-7.58h53.052Zm0-1.895H9.474A9.474 9.474 0 0 0 0 9.737v26.526a9.474 9.474 0 0 0 9.474 9.474h53.052A9.474 9.474 0 0 0 72 36.263V9.737A9.474 9.474 0 0 0 62.526.263Z" fill="#C6C6C6" stroke="#fff" stroke-width=".6"/><path d="M55.407 27.767c.727 0 1.46-.008 2.194.009.105.003.244.105.305.198.264.413.556.538 1.13.449.412-.065.61-.347.66-.704.078-.558.104-1.121.153-1.684-.085-.006-.129-.018-.134-.008-.571.932-1.46 1.117-2.471.965-.93-.14-1.413-.763-1.699-1.572-.465-1.315-.419-2.669-.299-4.024.07-.79.245-1.543.718-2.228.767-1.11 3.182-1.126 3.785.245.017.039.06.066.152.162v-.978h2.475c.008.164.022.322.022.48.002 2.594 0 5.189.002 7.782 0 2.148-.934 3.146-3.15 3.317-.892.069-1.778-.001-2.62-.345-.867-.353-1.344-1.136-1.223-2.064Zm4.451-5.21c-.075-.454-.129-1.095-.31-1.7-.063-.21-.44-.456-.676-.46-.239-.003-.497.257-.715.437-.093.075-.146.242-.147.367-.01 1.05-.056 2.105.021 3.15.043.578.366.77.838.755.442-.015.734-.272.819-.81.08-.512.104-1.033.17-1.738ZM49.389 26.46v.764h-2.572V15.81c.821 0 1.629-.01 2.437.015.08.003.218.217.22.334.021.88.013 1.759.015 2.638v.556c.259-.246.437-.463.66-.619 1.222-.851 2.984-.348 3.504 1.03a6.41 6.41 0 0 1 .368 1.693c.131 1.502.183 3.01-.364 4.46-.54 1.432-2.272 2.022-3.548 1.224-.271-.17-.532-.354-.798-.532l.078-.15Zm.007-3.608c.077.698.122 1.35.228 1.992.064.387.287.703.76.7.475-.004.73-.304.825-.707.1-.433.192-.882.18-1.321a26.96 26.96 0 0 0-.21-2.656c-.05-.396-.408-.6-.813-.584-.39.015-.665.252-.724.63-.105.658-.17 1.32-.246 1.946ZM19.181 15.802c.541 0 1.06-.005 1.577 0 1.105.015 2.215-.03 3.312.07 1.666.152 2.656 1.12 2.803 2.735.063.698.032 1.447-.163 2.115-.377 1.296-1.484 1.985-3.017 2.048-.444.018-.89.032-1.335.018-.322-.009-.42.112-.416.42.013 1.177 0 2.355-.001 3.533v.476h-2.76V15.802Zm2.766 2.048c0 .918-.004 1.777.008 2.637 0 .093.08.237.16.268.745.29 1.732-.16 1.856-.895.069-.411.024-.86-.065-1.27-.096-.451-.484-.677-.937-.732-.315-.039-.639-.008-1.022-.008ZM35.674 30.025v-1.796c.228 0 .452.004.676 0 .783-.016 1.196-.565.984-1.291-.79-2.72-1.576-5.441-2.362-8.162-.011-.04-.006-.083-.013-.201h1.834c.936 0 .925 0 1.079.881.27 1.542.553 3.08.833 4.62.019.098.056.195.147.29l.66-3.843c.096-.558.177-1.12.293-1.673.022-.106.176-.261.273-.263.794-.021 1.59-.012 2.46-.012-.162.616-.304 1.175-.456 1.731-.672 2.46-1.344 4.92-2.026 7.376-.091.33-.23.648-.367.962-.397.905-1.126 1.346-2.121 1.378-.612.02-1.225.004-1.893.004v-.001ZM29.903 21.229h-2.322c-.19-1.182.502-2.323 1.636-2.646a6.396 6.396 0 0 1 3.32-.054c1.058.26 1.614.936 1.639 1.996.033 1.401 0 2.804.025 4.205.014.826.083 1.651.129 2.521-.668 0-1.432.008-2.195-.01-.092-.003-.223-.134-.26-.234-.068-.178-.078-.375-.125-.636-.499.705-1.15 1.05-1.98 1.096-1.4.077-2.29-.638-2.443-1.986-.088-.767-.108-1.542.368-2.198.235-.323.583-.642.953-.783.752-.287 1.554-.448 2.334-.667.407-.114.72-.293.716-.79-.005-.594-.21-.9-.724-.953-.555-.058-.92.224-1.023.794-.018.102-.028.205-.048.345Zm1.774 1.82c-.352.136-.662.258-.973.376-.646.245-.89.636-.815 1.318.067.605.334.9.81.895a.966.966 0 0 0 .971-.938c.025-.533.007-1.068.007-1.651ZM18.15 23.355h-4.702c.091.688.146 1.32.269 1.937.07.354.36.535.747.544.39.01.657-.18.775-.517.112-.32.156-.664.234-1.017h2.416c.18 1.384-.735 2.69-2.108 3.021a5.569 5.569 0 0 1-2.689-.013c-1.017-.257-1.687-.916-1.95-1.894-.436-1.626-.464-3.274-.035-4.903.344-1.304 1.404-2.095 2.788-2.126a9.69 9.69 0 0 1 1.92.127c.952.173 1.635.756 1.847 1.67.233 1.008.321 2.047.488 3.17Zm-2.71-1.573c-.063-.455-.084-.87-.188-1.266-.09-.342-.353-.535-.755-.525-.383.01-.678.161-.783.505-.122.402-.165.828-.25 1.286h1.977ZM42.652 27.228v-2.85h2.553v2.85h-2.553Z" fill="#000"/></g><defs><clipPath id="a"><path fill="#fff" d="M0 0h72v46H0z"/></clipPath></defs></svg>