<svg width="77" height="32" fill="none" xmlns="http://www.w3.org/2000/svg"><g clip-path="url(#a)" fill="#666"><path d="M5.61 14.554c-.06 2.444.65 4.667 2.107 6.582 1.606 2.11 3.72 3.524 6.38 4.06 2.542.513 4.946.128 7.267-.959.054-.025.112-.055.168-.056.168-.004.335.005.502.01-.01.153.016.322-.04.457-.422 1.038-1.036 1.96-1.725 2.84a12.48 12.48 0 0 1-4.158 3.43c-1.771.915-3.625.826-5.444.232-1.474-.482-2.909-1.08-4.171-2.04-1.662-1.267-2.93-2.834-3.929-4.66C1.6 22.68 1.086 20.783.84 18.802c-.182-1.47-.071-2.936.163-4.394.274-1.704.694-3.364 1.467-4.916C3.58 7.26 5.036 5.29 6.989 3.714c2.85-2.3 6.084-3.499 9.77-3.29 2.545.144 4.877.954 6.927 2.493.543.408 1.04.883 1.536 1.35.098.092.089.296.13.448-.16-.014-.366.03-.469-.052a11.722 11.722 0 0 0-3.403-1.9c-2.191-.783-4.405-.87-6.657-.139-1.245.404-2.487.8-3.557 1.56-2.44 1.73-4.27 3.932-5.082 6.876-.157.57-.337 1.137-.433 1.718-.096.585-.099 1.183-.142 1.776ZM64.51 9.72l2.775-.54c.29-.056.451.069.514.348.04.182.092.363.137.544.713-.284 1.378-.689 2.088-.802 1.63-.26 3.263-.16 4.59.979.939.805 1.383 1.909 1.424 3.154.044 1.339.045 2.683-.451 3.952-1.052 2.686-2.874 4.463-5.842 4.895-1.172.171-2.297.03-3.496-.313-.109.547-.22 1.058-.312 1.573-.105.582-.193 1.168-.288 1.752-.052.321-.198.483-.565.473-.92-.025-1.843-.008-2.822-.008.092-.517.174-.99.26-1.46.42-2.278.84-4.554 1.262-6.83.263-1.423.564-2.84.783-4.268.159-1.039.237-2.095-.056-3.137-.023-.081-.002-.175-.002-.312Zm3.846 9.803c1.87.047 3.37-1.04 3.825-2.463.222-.7.356-1.437.442-2.168.099-.845.01-1.677-.737-2.261-1.102-.863-2.938-.674-3.885.402a.894.894 0 0 0-.184.393c-.121.576-.223 1.156-.332 1.735-.219 1.163-.434 2.327-.656 3.49-.067.351.054.592.404.672.37.084.749.136 1.124.2h-.001ZM61.632 22.058c-.735 0-1.466.037-2.19-.012-.529-.036-.84-.446-1.033-.8-.816.323-1.57.723-2.376.917-1.541.37-3.038.238-4.312-.845-.707-.6-1.104-1.409-1.235-2.3-.363-2.467.186-4.747 1.66-6.757 1.505-2.05 3.497-3.231 6.122-3.09 1.155.063 2.307.18 3.461.28.13.012.258.067.382.114.663.256.66.257.524.987-.401 2.147-.805 4.294-1.197 6.441-.293 1.602-.244 3.194.191 4.768.023.08.003.173.003.296v.001Zm-6.15-2.404c.34-.125.713-.196 1.013-.384.765-.48 1.176-1.243 1.445-2.075.504-1.558.904-3.142 1.142-4.766.042-.288.006-.381-.279-.39-.386-.011-.771-.05-1.158-.068-.845-.043-1.559.296-2.106.894-1.287 1.408-1.715 3.16-1.75 5-.022 1.131.619 1.704 1.693 1.789ZM32.98 17c-.224 1.144.72 2.339 1.953 2.474 1.44.157 2.644-.329 3.73-1.215.065-.053.136-.098.293-.212-.035.46-.06.825-.094 1.187-.062.682-.119 1.364-.207 2.042-.02.15-.132.363-.256.41-1.74.676-3.535.95-5.34.373-2.03-.65-3.162-2.09-3.454-4.22-.265-1.939.097-3.751 1.122-5.385 1.161-1.85 2.89-2.895 5.066-3.182 1.25-.165 2.506-.264 3.683.277.566.262 1.114.631 1.566 1.061 1.088 1.036.824 3.846-.727 4.99-1.396 1.031-2.942 1.57-4.674 1.537-.872-.018-1.741-.087-2.66-.136h-.002Zm.627-2.768c.209.05.376.125.542.122.713-.013 1.439.025 2.136-.097a4.943 4.943 0 0 0 1.675-.63c.603-.366.578-1.173.014-1.405-.724-.298-1.52-.337-2.227-.088-.978.347-1.636 1.127-2.139 2.098ZM43.677 12.13c-.356 0-.667-.005-.977.002-.256.005-.357-.103-.3-.356.164-.72.31-1.443.507-2.152.03-.114.275-.213.434-.237.319-.05.731.068.943-.093.183-.14.142-.573.2-.876.003-.015.01-.029.011-.043.09-1.055.537-1.762 1.672-1.985.674-.132 1.31-.457 1.965-.688.096-.034.206-.029.406-.053l-.861 3.753h1.938c.224 0 .447-.007.67-.004.74.01.75.016.615.72-.107.55-.238 1.097-.352 1.647-.06.29-.247.373-.519.37-.833-.006-1.668.006-2.502-.007-.333-.004-.502.101-.578.457-.39 1.82-.809 3.635-1.211 5.452-.236 1.063.46 1.677 1.588 1.391.595-.15 1.18-.336 1.875-.537v2.09c0 .912.009.96-.86 1.117-1.266.228-2.548.422-3.828.066-1.2-.335-1.815-1.193-2.105-2.354-.254-1.016.087-1.962.298-2.926.313-1.43.635-2.858.948-4.288.028-.128.015-.266.023-.466Z"/><path d="M13.698 14.407c-1.525.737-2.265 2.153-3.02 3.61h-.001c.047.027.083.05.112.068.052.031.084.05.118.064l.095.037c.107.043.215.085.327.107.299.056.598.116.896.176 1.714.342 3.43.685 5.196.44 1.204-.167 2.423-.34 3.585-.682 1.976-.581 3.573-1.789 4.873-3.378.974-1.192 1.516-2.546 1.478-4.108-.054-2.255-1.08-4.054-2.676-5.552-.936-.878-2.094-1.399-3.323-1.748l-.031-.009c-.243-.069-.52-.149-.809.17.115.062.223.125.329.186.217.126.42.244.638.326 1.86.701 3.064 1.965 3.38 3.963.205 1.301-.026 2.518-.904 3.558-.804.953-1.859 1.524-3.007 1.924-1.798.626-3.668.62-5.537.614l-.382-.001c-.448-.001-.943.045-1.337.235Z"/><path fill-rule="evenodd" clip-rule="evenodd" d="M52.32 28.87a4.648 4.648 0 0 1-1.54 1.86v-.001l-.147-.056c.013-.07.023-.14.033-.21.022-.154.044-.308.1-.449.245-.623.5-1.243.756-1.862.119-.289.238-.576.355-.864.199-.486.128-.903-.191-1.138-.4-.293-.76-.11-1.053.153-.433.39-.842.806-1.251 1.223l-.296.3c-.142.143-.274.294-.407.445-.063.072-.126.144-.19.214-.072-.124-.079-.2-.051-.262.113-.248.229-.495.344-.743.193-.412.386-.824.567-1.24.26-.6.518-1.204.724-1.824.133-.4-.151-.807-.54-.883-.356-.068-.56.096-.668.432-.22.675-.444 1.349-.668 2.022l-.38 1.148c-.519 1.57-1.63 2.631-3.008 3.443-.184.109-.494.107-.7.032-.085-.03-.112-.409-.06-.6.317-1.136.989-2.06 1.84-2.848.145-.134.37-.185.588-.235.06-.013.118-.026.174-.04.107-.03.221-.03.336-.031.052 0 .105 0 .158-.004-.023-.061-.04-.13-.056-.2-.038-.155-.075-.31-.172-.372-.233-.15-.577-.292-.819-.229a3.646 3.646 0 0 0-1.258.606c-.86.655-1.366 1.585-1.857 2.532-.199.384-.476.729-.752 1.072-.078.098-.157.195-.233.293-.047.06-.135.089-.222.117-.04.013-.081.026-.117.042-.014-.038-.032-.076-.05-.115-.042-.086-.084-.172-.068-.246l.03-.14c.08-.375.162-.755.316-1.1.132-.3.29-.588.446-.876.163-.3.325-.598.46-.909.097-.22.11-.58-.01-.763-.11-.169-.487-.3-.683-.24-.232.07-.44.335-.584.563-.133.212-.247.436-.361.66-.13.254-.26.508-.416.744a34.97 34.97 0 0 1-1.462 2.016c-.06.077-.178.11-.295.145-.055.015-.11.031-.158.051-.015-.048-.033-.097-.052-.146-.042-.11-.084-.22-.08-.328.008-.203.061-.418.15-.6.212-.432.433-.857.654-1.283.127-.246.255-.492.38-.739.227-.443.104-.866-.299-1.058-.376-.181-.672-.018-.886.473-.075.172-.154.342-.233.512-.147.316-.293.632-.413.958-.225.61-.44 1.23-.578 1.863-.086.395.017.825.397 1.069.38.243.794.163 1.134-.09.237-.174.448-.384.658-.594l.218-.215c.101-.097.197-.2.302-.311l.161-.172c.02.139.037.27.052.393.032.264.06.5.122.728.134.5.573.711 1.04.504.224-.1.432-.264.605-.44a2.63 2.63 0 0 0 .314-.422c.049-.075.1-.153.156-.233.069.096.121.17.164.228.071.099.114.157.155.217.445.649 1.133.825 1.818.439.309-.175.602-.383.883-.601.257-.2.504-.41.756-.626.108-.093.217-.186.328-.279 0 .102-.005.198-.01.29-.01.194-.02.368.023.529.044.165.142.316.239.467.043.066.086.133.124.2.055-.05.117-.096.179-.143.134-.1.268-.2.33-.334.48-1.04 1.222-1.881 1.963-2.723.171-.194.342-.388.51-.584.046-.054.11-.092.202-.145.051-.03.11-.065.18-.11l-.115.332c-.07.202-.13.375-.182.551-.06.197-.12.394-.182.59-.177.568-.354 1.137-.475 1.716a.863.863 0 0 0 .512.997c.425.185.779.005 1.09-.285.163-.15.324-.302.487-.456l.29-.274c.693 1.238 1.425 1.441 2.618.722.298-.18.576-.393.855-.607.121-.094.242-.187.366-.277.082-.06.163-.123.256-.195l.003-.002.147-.113-.01.134c-.016.22-.028.393-.042.566-.028.351.104.656.434.745.37.101.488-.21.6-.508l.002-.002c.53-1.413 1.25-2.695 2.524-3.593.6-.423.78-.442 1.253-.014.277-.337.32-.867.09-1.139-.216-.255-.607-.26-1.021 0a2.846 2.846 0 0 0-.383.305c-.196.177-.389.357-.597.55l-.268.25-.001-.103c0-.033-.001-.05.001-.067.068-.564-.085-.865-.485-.95-.386-.083-.6.091-.799.653l-.016.056a.665.665 0 0 1-.022.072c-.07.176-.128.359-.187.542-.132.41-.263.819-.509 1.14-.714.935-1.6 1.723-2.721 2.17-.188.076-.546.09-.637-.022-.277-.34-.117-.722.029-1.072l.042-.101c.05-.121.16-.217.272-.313a2.421 2.421 0 0 0 .143-.129l.018.003.014.003a.05.05 0 0 0 .007.001c.973.037 2.243-.855 2.571-1.805.154-.445.048-.764-.342-1.037-.632-.442-1.379-.36-2.023.243a7.773 7.773 0 0 0-1.757 2.395Zm3.236-1.452c-.302.625-.77 1.039-1.571 1.194a4 4 0 0 1 1.21-1.539c.06-.047.163-.04.267-.032.047.004.095.008.138.006-.004.04-.005.081-.006.122-.002.088-.004.177-.038.25ZM37.698 28.01c.058-.154.115-.309.178-.46h-.002l-.114-.03c.114-.736-.379-1.004-.906-1.291l-.018-.01c-.44-.24-.84-.215-1.216.049-.386.271-.77.565-1.087.911-.661.72-1.162 1.545-1.396 2.506-.159.648.044 1.267.484 1.57.43.296 1.065.223 1.629-.142a6.213 6.213 0 0 0 2.011-2.106c.182-.31.31-.654.437-.996Zm-3.33 2.368a1.087 1.087 0 0 0-.044-.106c.154-.94.605-1.64 1.119-2.297.244-.313.548-.598.876-.819.177-.12.529-.181.68-.082.138.091.192.45.145.66-.279 1.257-1.07 2.163-2.098 2.878-.127.087-.376.132-.492.065-.095-.055-.145-.19-.186-.299Z"/><path d="M34.43 26.032c-.035.086-.065.175-.096.264-.066.193-.132.385-.244.546a175.695 175.695 0 0 1-2.66 3.724c-.175.237-.425.426-.665.607l-.027.02c-.538.404-1.076.228-1.13-.44-.047-.609.03-1.231.105-1.845l.023-.187c.047-.39.127-.778.208-1.165.037-.182.075-.364.11-.547.1-.535.363-.792.725-.706.396.093.68.576.572 1.021-.106.445-.22.888-.334 1.331-.085.334-.17.667-.253 1.001-.023.092-.031.186-.043.322-.007.073-.014.157-.025.26.101-.079.197-.145.285-.205.17-.116.309-.212.405-.34.535-.708 1.06-1.424 1.585-2.14.283-.387.566-.773.85-1.157.087-.117.187-.224.288-.33.047-.05.094-.099.14-.15l.091.058.091.057Z"/></g><defs><clipPath id="a"><path fill="#fff" transform="translate(.748 .4)" d="M0 0h75.308v31.201H0z"/></clipPath></defs></svg>