<svg width="72" height="46" fill="none" xmlns="http://www.w3.org/2000/svg"><g clip-path="url(#a)"><path d="M62.526 2.158a7.579 7.579 0 0 1 7.58 7.579v26.526a7.579 7.579 0 0 1-7.58 7.58H9.474a7.579 7.579 0 0 1-7.58-7.58V9.737a7.579 7.579 0 0 1 7.58-7.58h53.052Zm0-1.895H9.474A9.474 9.474 0 0 0 0 9.737v26.526a9.474 9.474 0 0 0 9.474 9.474h53.052A9.474 9.474 0 0 0 72 36.263V9.737A9.474 9.474 0 0 0 62.526.263Z" fill="#C6C6C6" stroke="#fff" stroke-width=".6"/><path d="M34.313 15.573a9 9 0 1 0 0 14.854 11.236 11.236 0 0 1 0-14.854Z" fill="#000"/><path d="M42.745 32a9 9 0 1 0 0-18 9 9 0 0 0 0 18Z" fill="#000"/></g><defs><clipPath id="a"><path fill="#fff" d="M0 0h72v46H0z"/></clipPath></defs></svg>