<svg xmlns="http://www.w3.org/2000/svg" width="256" height="256"><path d="M0 0h256v256H0z" style="fill:#fff;shape-rendering:crispEdges"/><path d="M15.515 15.515h7.758v7.758h-7.758zM23.273 15.515h7.758v7.758h-7.758z" style="fill:#000;shape-rendering:crispEdges"/><path d="M31.03 15.515h7.758v7.758H31.03z" style="fill:#000;shape-rendering:crispEdges"/><path d="M38.788 15.515h7.758v7.758h-7.758z" style="fill:#000;shape-rendering:crispEdges"/><path d="M46.545 15.515h7.758v7.758h-7.758z" style="fill:#000;shape-rendering:crispEdges"/><path d="M54.303 15.515h7.758v7.758h-7.758zM62.061 15.515h7.758v7.758h-7.758zM77.576 15.515h7.758v7.758h-7.758zM93.091 15.515h7.758v7.758h-7.758zM116.364 15.515h7.758v7.758h-7.758zM139.636 15.515h7.758v7.758h-7.758zM147.394 15.515h7.758v7.758h-7.758z" style="fill:#000;shape-rendering:crispEdges"/><path d="M155.152 15.515h7.758v7.758h-7.758z" style="fill:#000;shape-rendering:crispEdges"/><path d="M162.909 15.515h7.758v7.758h-7.758zM170.667 15.515h7.758v7.758h-7.758zM186.182 15.515h7.758v7.758h-7.758z" style="fill:#000;shape-rendering:crispEdges"/><path d="M193.939 15.515h7.758v7.758h-7.758zM201.697 15.515h7.758v7.758h-7.758zM209.455 15.515h7.758v7.758h-7.758z" style="fill:#000;shape-rendering:crispEdges"/><path d="M217.212 15.515h7.758v7.758h-7.758zM224.97 15.515h7.758v7.758h-7.758z" style="fill:#000;shape-rendering:crispEdges"/><path d="M232.727 15.515h7.758v7.758h-7.758zM15.515 23.273h7.758v7.758h-7.758zM62.061 23.273h7.758v7.758h-7.758zM93.091 23.273h7.758v7.758h-7.758z" style="fill:#000;shape-rendering:crispEdges"/><path d="M100.848 23.273h7.758v7.758h-7.758zM155.152 23.273h7.758v7.758h-7.758z" style="fill:#000;shape-rendering:crispEdges"/><path d="M162.909 23.273h7.758v7.758h-7.758zM170.667 23.273h7.758v7.758h-7.758zM186.182 23.273h7.758v7.758h-7.758zM232.727 23.273h7.758v7.758h-7.758zM15.515 31.03h7.758v7.758h-7.758zM31.03 31.03h7.758v7.758H31.03z" style="fill:#000;shape-rendering:crispEdges"/><path d="M38.788 31.03h7.758v7.758h-7.758z" style="fill:#000;shape-rendering:crispEdges"/><path d="M46.545 31.03h7.758v7.758h-7.758zM62.061 31.03h7.758v7.758h-7.758zM85.333 31.03h7.758v7.758h-7.758zM100.848 31.03h7.758v7.758h-7.758zM108.606 31.03h7.758v7.758h-7.758zM124.121 31.03h7.758v7.758h-7.758zM139.636 31.03h7.758v7.758h-7.758zM147.394 31.03h7.758v7.758h-7.758zM162.909 31.03h7.758v7.758h-7.758zM170.667 31.03h7.758v7.758h-7.758zM186.182 31.03h7.758v7.758h-7.758zM201.697 31.03h7.758v7.758h-7.758zM209.455 31.03h7.758v7.758h-7.758z" style="fill:#000;shape-rendering:crispEdges"/><path d="M217.212 31.03h7.758v7.758h-7.758zM232.727 31.03h7.758v7.758h-7.758zM15.515 38.788h7.758v7.758h-7.758zM31.03 38.788h7.758v7.758H31.03z" style="fill:#000;shape-rendering:crispEdges"/><path d="M38.788 38.788h7.758v7.758h-7.758z" style="fill:#000;shape-rendering:crispEdges"/><path d="M46.545 38.788h7.758v7.758h-7.758zM62.061 38.788h7.758v7.758h-7.758zM77.576 38.788h7.758v7.758h-7.758z" style="fill:#000;shape-rendering:crispEdges"/><path d="M85.333 38.788h7.758v7.758h-7.758zM147.394 38.788h7.758v7.758h-7.758z" style="fill:#000;shape-rendering:crispEdges"/><path d="M155.152 38.788h7.758v7.758h-7.758zM186.182 38.788h7.758v7.758h-7.758zM201.697 38.788h7.758v7.758h-7.758zM209.455 38.788h7.758v7.758h-7.758z" style="fill:#000;shape-rendering:crispEdges"/><path d="M217.212 38.788h7.758v7.758h-7.758zM232.727 38.788h7.758v7.758h-7.758zM15.515 46.545h7.758v7.758h-7.758zM31.03 46.545h7.758v7.758H31.03z" style="fill:#000;shape-rendering:crispEdges"/><path d="M38.788 46.545h7.758v7.758h-7.758z" style="fill:#000;shape-rendering:crispEdges"/><path d="M46.545 46.545h7.758v7.758h-7.758zM62.061 46.545h7.758v7.758h-7.758zM77.576 46.545h7.758v7.758h-7.758z" style="fill:#000;shape-rendering:crispEdges"/><path d="M85.333 46.545h7.758v7.758h-7.758zM93.091 46.545h7.758v7.758h-7.758zM108.606 46.545h7.758v7.758h-7.758zM116.364 46.545h7.758v7.758h-7.758z" style="fill:#000;shape-rendering:crispEdges"/><path d="M124.121 46.545h7.758v7.758h-7.758zM139.636 46.545h7.758v7.758h-7.758zM155.152 46.545h7.758v7.758h-7.758z" style="fill:#000;shape-rendering:crispEdges"/><path d="M162.909 46.545h7.758v7.758h-7.758zM186.182 46.545h7.758v7.758h-7.758zM201.697 46.545h7.758v7.758h-7.758zM209.455 46.545h7.758v7.758h-7.758z" style="fill:#000;shape-rendering:crispEdges"/><path d="M217.212 46.545h7.758v7.758h-7.758zM232.727 46.545h7.758v7.758h-7.758zM15.515 54.303h7.758v7.758h-7.758zM62.061 54.303h7.758v7.758h-7.758zM77.576 54.303h7.758v7.758h-7.758z" style="fill:#000;shape-rendering:crispEdges"/><path d="M85.333 54.303h7.758v7.758h-7.758zM108.606 54.303h7.758v7.758h-7.758zM124.121 54.303h7.758v7.758h-7.758zM162.909 54.303h7.758v7.758h-7.758zM186.182 54.303h7.758v7.758h-7.758zM232.727 54.303h7.758v7.758h-7.758zM15.515 62.061h7.758v7.758h-7.758zM23.273 62.061h7.758v7.758h-7.758z" style="fill:#000;shape-rendering:crispEdges"/><path d="M31.03 62.061h7.758v7.758H31.03z" style="fill:#000;shape-rendering:crispEdges"/><path d="M38.788 62.061h7.758v7.758h-7.758z" style="fill:#000;shape-rendering:crispEdges"/><path d="M46.545 62.061h7.758v7.758h-7.758z" style="fill:#000;shape-rendering:crispEdges"/><path d="M54.303 62.061h7.758v7.758h-7.758zM62.061 62.061h7.758v7.758h-7.758zM77.576 62.061h7.758v7.758h-7.758zM93.091 62.061h7.758v7.758h-7.758zM108.606 62.061h7.758v7.758h-7.758zM124.121 62.061h7.758v7.758h-7.758zM139.636 62.061h7.758v7.758h-7.758zM155.152 62.061h7.758v7.758h-7.758zM170.667 62.061h7.758v7.758h-7.758zM186.182 62.061h7.758v7.758h-7.758z" style="fill:#000;shape-rendering:crispEdges"/><path d="M193.939 62.061h7.758v7.758h-7.758zM201.697 62.061h7.758v7.758h-7.758zM209.455 62.061h7.758v7.758h-7.758z" style="fill:#000;shape-rendering:crispEdges"/><path d="M217.212 62.061h7.758v7.758h-7.758zM224.97 62.061h7.758v7.758h-7.758z" style="fill:#000;shape-rendering:crispEdges"/><path d="M232.727 62.061h7.758v7.758h-7.758zM77.576 69.818h7.758v7.758h-7.758zM93.091 69.818h7.758v7.758h-7.758z" style="fill:#000;shape-rendering:crispEdges"/><path d="M100.848 69.818h7.758v7.758h-7.758zM124.121 69.818h7.758v7.758h-7.758zM147.394 69.818h7.758v7.758h-7.758z" style="fill:#000;shape-rendering:crispEdges"/><path d="M155.152 69.818h7.758v7.758h-7.758zM170.667 69.818h7.758v7.758h-7.758zM15.515 77.576h7.758v7.758h-7.758zM23.273 77.576h7.758v7.758h-7.758z" style="fill:#000;shape-rendering:crispEdges"/><path d="M31.03 77.576h7.758v7.758H31.03zM46.545 77.576h7.758v7.758h-7.758zM62.061 77.576h7.758v7.758h-7.758zM77.576 77.576h7.758v7.758h-7.758zM93.091 77.576h7.758v7.758h-7.758z" style="fill:#000;shape-rendering:crispEdges"/><path d="M100.848 77.576h7.758v7.758h-7.758zM116.364 77.576h7.758v7.758h-7.758z" style="fill:#000;shape-rendering:crispEdges"/><path d="M124.121 77.576h7.758v7.758h-7.758zM178.424 77.576h7.758v7.758h-7.758z" style="fill:#000;shape-rendering:crispEdges"/><path d="M186.182 77.576h7.758v7.758h-7.758z" style="fill:#000;shape-rendering:crispEdges"/><path d="M193.939 77.576h7.758v7.758h-7.758zM201.697 77.576h7.758v7.758h-7.758zM209.455 77.576h7.758v7.758h-7.758zM232.727 77.576h7.758v7.758h-7.758zM23.273 85.333h7.758v7.758h-7.758zM77.576 85.333h7.758v7.758h-7.758zM93.091 85.333h7.758v7.758h-7.758z" style="fill:#000;shape-rendering:crispEdges"/><path d="M100.848 85.333h7.758v7.758h-7.758zM108.606 85.333h7.758v7.758h-7.758zM131.879 85.333h7.758v7.758h-7.758z" style="fill:#000;shape-rendering:crispEdges"/><path d="M139.636 85.333h7.758v7.758h-7.758zM155.152 85.333h7.758v7.758h-7.758z" style="fill:#000;shape-rendering:crispEdges"/><path d="M162.909 85.333h7.758v7.758h-7.758zM170.667 85.333h7.758v7.758h-7.758zM193.939 85.333h7.758v7.758h-7.758zM201.697 85.333h7.758v7.758h-7.758zM217.212 85.333h7.758v7.758h-7.758zM31.03 93.091h7.758v7.758H31.03z" style="fill:#000;shape-rendering:crispEdges"/><path d="M38.788 93.091h7.758v7.758h-7.758z" style="fill:#000;shape-rendering:crispEdges"/><path d="M46.545 93.091h7.758v7.758h-7.758z" style="fill:#000;shape-rendering:crispEdges"/><path d="M54.303 93.091h7.758v7.758h-7.758zM62.061 93.091h7.758v7.758h-7.758z" style="fill:#000;shape-rendering:crispEdges"/><path d="M69.818 93.091h7.758v7.758h-7.758zM85.333 93.091h7.758v7.758h-7.758zM100.848 93.091h7.758v7.758h-7.758zM108.606 93.091h7.758v7.758h-7.758zM116.364 93.091h7.758v7.758h-7.758z" style="fill:#000;shape-rendering:crispEdges"/><path d="M124.121 93.091h7.758v7.758h-7.758zM131.879 93.091h7.758v7.758h-7.758zM162.909 93.091h7.758v7.758h-7.758zM170.667 93.091h7.758v7.758h-7.758zM186.182 93.091h7.758v7.758h-7.758z" style="fill:#000;shape-rendering:crispEdges"/><path d="M193.939 93.091h7.758v7.758h-7.758zM201.697 93.091h7.758v7.758h-7.758zM209.455 93.091h7.758v7.758h-7.758zM232.727 93.091h7.758v7.758h-7.758zM15.515 100.848h7.758v7.758h-7.758zM23.273 100.848h7.758v7.758h-7.758zM46.545 100.848h7.758v7.758h-7.758z" style="fill:#000;shape-rendering:crispEdges"/><path d="M54.303 100.848h7.758v7.758h-7.758zM77.576 100.848h7.758v7.758h-7.758z" style="fill:#000;shape-rendering:crispEdges"/><path d="M85.333 100.848h7.758v7.758h-7.758zM108.606 100.848h7.758v7.758h-7.758zM116.364 100.848h7.758v7.758h-7.758zM131.879 100.848h7.758v7.758h-7.758zM147.394 100.848h7.758v7.758h-7.758z" style="fill:#000;shape-rendering:crispEdges"/><path d="M155.152 100.848h7.758v7.758h-7.758zM209.455 100.848h7.758v7.758h-7.758z" style="fill:#000;shape-rendering:crispEdges"/><path d="M217.212 100.848h7.758v7.758h-7.758zM232.727 100.848h7.758v7.758h-7.758zM23.273 108.606h7.758v7.758h-7.758zM46.545 108.606h7.758v7.758h-7.758zM62.061 108.606h7.758v7.758h-7.758zM77.576 108.606h7.758v7.758h-7.758zM93.091 108.606h7.758v7.758h-7.758zM116.364 108.606h7.758v7.758h-7.758zM155.152 108.606h7.758v7.758h-7.758z" style="fill:#000;shape-rendering:crispEdges"/><path d="M162.909 108.606h7.758v7.758h-7.758zM170.667 108.606h7.758v7.758h-7.758zM186.182 108.606h7.758v7.758h-7.758zM201.697 108.606h7.758v7.758h-7.758zM209.455 108.606h7.758v7.758h-7.758zM232.727 108.606h7.758v7.758h-7.758zM69.818 116.364h7.758v7.758h-7.758zM77.576 116.364h7.758v7.758h-7.758z" style="fill:#000;shape-rendering:crispEdges"/><path d="M85.333 116.364h7.758v7.758h-7.758zM93.091 116.364h7.758v7.758h-7.758z" style="fill:#000;shape-rendering:crispEdges"/><path d="M100.848 116.364h7.758v7.758h-7.758zM108.606 116.364h7.758v7.758h-7.758zM116.364 116.364h7.758v7.758h-7.758z" style="fill:#000;shape-rendering:crispEdges"/><path d="M124.121 116.364h7.758v7.758h-7.758zM147.394 116.364h7.758v7.758h-7.758zM170.667 116.364h7.758v7.758h-7.758zM201.697 116.364h7.758v7.758h-7.758zM209.455 116.364h7.758v7.758h-7.758z" style="fill:#000;shape-rendering:crispEdges"/><path d="M217.212 116.364h7.758v7.758h-7.758zM232.727 116.364h7.758v7.758h-7.758zM46.545 124.121h7.758v7.758h-7.758zM62.061 124.121h7.758v7.758h-7.758zM116.364 124.121h7.758v7.758h-7.758zM139.636 124.121h7.758v7.758h-7.758zM147.394 124.121h7.758v7.758h-7.758zM162.909 124.121h7.758v7.758h-7.758zM170.667 124.121h7.758v7.758h-7.758z" style="fill:#000;shape-rendering:crispEdges"/><path d="M178.424 124.121h7.758v7.758h-7.758z" style="fill:#000;shape-rendering:crispEdges"/><path d="M186.182 124.121h7.758v7.758h-7.758z" style="fill:#000;shape-rendering:crispEdges"/><path d="M193.939 124.121h7.758v7.758h-7.758zM201.697 124.121h7.758v7.758h-7.758zM224.97 124.121h7.758v7.758h-7.758z" style="fill:#000;shape-rendering:crispEdges"/><path d="M232.727 124.121h7.758v7.758h-7.758zM15.515 131.879h7.758v7.758h-7.758zM31.03 131.879h7.758v7.758H31.03zM46.545 131.879h7.758v7.758h-7.758z" style="fill:#000;shape-rendering:crispEdges"/><path d="M54.303 131.879h7.758v7.758h-7.758zM69.818 131.879h7.758v7.758h-7.758zM93.091 131.879h7.758v7.758h-7.758zM108.606 131.879h7.758v7.758h-7.758zM131.879 131.879h7.758v7.758h-7.758zM155.152 131.879h7.758v7.758h-7.758zM170.667 131.879h7.758v7.758h-7.758zM193.939 131.879h7.758v7.758h-7.758zM217.212 131.879h7.758v7.758h-7.758zM232.727 131.879h7.758v7.758h-7.758zM15.515 139.636h7.758v7.758h-7.758zM23.273 139.636h7.758v7.758h-7.758z" style="fill:#000;shape-rendering:crispEdges"/><path d="M31.03 139.636h7.758v7.758H31.03z" style="fill:#000;shape-rendering:crispEdges"/><path d="M38.788 139.636h7.758v7.758h-7.758z" style="fill:#000;shape-rendering:crispEdges"/><path d="M46.545 139.636h7.758v7.758h-7.758z" style="fill:#000;shape-rendering:crispEdges"/><path d="M54.303 139.636h7.758v7.758h-7.758zM62.061 139.636h7.758v7.758h-7.758z" style="fill:#000;shape-rendering:crispEdges"/><path d="M69.818 139.636h7.758v7.758h-7.758zM85.333 139.636h7.758v7.758h-7.758zM93.091 139.636h7.758v7.758h-7.758z" style="fill:#000;shape-rendering:crispEdges"/><path d="M100.848 139.636h7.758v7.758h-7.758zM108.606 139.636h7.758v7.758h-7.758zM116.364 139.636h7.758v7.758h-7.758z" style="fill:#000;shape-rendering:crispEdges"/><path d="M124.121 139.636h7.758v7.758h-7.758zM139.636 139.636h7.758v7.758h-7.758zM147.394 139.636h7.758v7.758h-7.758zM170.667 139.636h7.758v7.758h-7.758zM201.697 139.636h7.758v7.758h-7.758zM217.212 139.636h7.758v7.758h-7.758zM15.515 147.394h7.758v7.758h-7.758zM38.788 147.394h7.758v7.758h-7.758zM77.576 147.394h7.758v7.758h-7.758zM100.848 147.394h7.758v7.758h-7.758zM116.364 147.394h7.758v7.758h-7.758z" style="fill:#000;shape-rendering:crispEdges"/><path d="M124.121 147.394h7.758v7.758h-7.758zM155.152 147.394h7.758v7.758h-7.758zM170.667 147.394h7.758v7.758h-7.758z" style="fill:#000;shape-rendering:crispEdges"/><path d="M178.424 147.394h7.758v7.758h-7.758zM193.939 147.394h7.758v7.758h-7.758zM15.515 155.152h7.758v7.758h-7.758zM31.03 155.152h7.758v7.758H31.03zM46.545 155.152h7.758v7.758h-7.758zM62.061 155.152h7.758v7.758h-7.758zM116.364 155.152h7.758v7.758h-7.758zM131.879 155.152h7.758v7.758h-7.758zM147.394 155.152h7.758v7.758h-7.758zM162.909 155.152h7.758v7.758h-7.758z" style="fill:#000;shape-rendering:crispEdges"/><path d="M178.424 155.152h7.758v7.758h-7.758zM209.455 155.152h7.758v7.758h-7.758z" style="fill:#000;shape-rendering:crispEdges"/><path d="M217.212 155.152h7.758v7.758h-7.758zM23.273 162.909h7.758v7.758h-7.758z" style="fill:#000;shape-rendering:crispEdges"/><path d="M31.03 162.909h7.758v7.758H31.03z" style="fill:#000;shape-rendering:crispEdges"/><path d="M38.788 162.909h7.758v7.758h-7.758z" style="fill:#000;shape-rendering:crispEdges"/><path d="M46.545 162.909h7.758v7.758h-7.758zM69.818 162.909h7.758v7.758h-7.758zM77.576 162.909h7.758v7.758h-7.758z" style="fill:#000;shape-rendering:crispEdges"/><path d="M85.333 162.909h7.758v7.758h-7.758zM108.606 162.909h7.758v7.758h-7.758zM124.121 162.909h7.758v7.758h-7.758zM147.394 162.909h7.758v7.758h-7.758z" style="fill:#000;shape-rendering:crispEdges"/><path d="M155.152 162.909h7.758v7.758h-7.758zM186.182 162.909h7.758v7.758h-7.758zM201.697 162.909h7.758v7.758h-7.758zM232.727 162.909h7.758v7.758h-7.758zM31.03 170.667h7.758v7.758H31.03z" style="fill:#000;shape-rendering:crispEdges"/><path d="M38.788 170.667h7.758v7.758h-7.758z" style="fill:#000;shape-rendering:crispEdges"/><path d="M46.545 170.667h7.758v7.758h-7.758zM62.061 170.667h7.758v7.758h-7.758z" style="fill:#000;shape-rendering:crispEdges"/><path d="M69.818 170.667h7.758v7.758h-7.758zM77.576 170.667h7.758v7.758h-7.758zM93.091 170.667h7.758v7.758h-7.758zM124.121 170.667h7.758v7.758h-7.758zM131.879 170.667h7.758v7.758h-7.758z" style="fill:#000;shape-rendering:crispEdges"/><path d="M139.636 170.667h7.758v7.758h-7.758zM147.394 170.667h7.758v7.758h-7.758zM170.667 170.667h7.758v7.758h-7.758z" style="fill:#000;shape-rendering:crispEdges"/><path d="M178.424 170.667h7.758v7.758h-7.758z" style="fill:#000;shape-rendering:crispEdges"/><path d="M186.182 170.667h7.758v7.758h-7.758z" style="fill:#000;shape-rendering:crispEdges"/><path d="M193.939 170.667h7.758v7.758h-7.758zM201.697 170.667h7.758v7.758h-7.758zM232.727 170.667h7.758v7.758h-7.758zM77.576 178.424h7.758v7.758h-7.758zM93.091 178.424h7.758v7.758h-7.758z" style="fill:#000;shape-rendering:crispEdges"/><path d="M100.848 178.424h7.758v7.758h-7.758zM131.879 178.424h7.758v7.758h-7.758z" style="fill:#000;shape-rendering:crispEdges"/><path d="M139.636 178.424h7.758v7.758h-7.758zM170.667 178.424h7.758v7.758h-7.758zM201.697 178.424h7.758v7.758h-7.758zM209.455 178.424h7.758v7.758h-7.758z" style="fill:#000;shape-rendering:crispEdges"/><path d="M217.212 178.424h7.758v7.758h-7.758zM232.727 178.424h7.758v7.758h-7.758zM15.515 186.182h7.758v7.758h-7.758zM23.273 186.182h7.758v7.758h-7.758z" style="fill:#000;shape-rendering:crispEdges"/><path d="M31.03 186.182h7.758v7.758H31.03z" style="fill:#000;shape-rendering:crispEdges"/><path d="M38.788 186.182h7.758v7.758h-7.758z" style="fill:#000;shape-rendering:crispEdges"/><path d="M46.545 186.182h7.758v7.758h-7.758z" style="fill:#000;shape-rendering:crispEdges"/><path d="M54.303 186.182h7.758v7.758h-7.758zM62.061 186.182h7.758v7.758h-7.758zM100.848 186.182h7.758v7.758h-7.758zM108.606 186.182h7.758v7.758h-7.758zM116.364 186.182h7.758v7.758h-7.758z" style="fill:#000;shape-rendering:crispEdges"/><path d="M124.121 186.182h7.758v7.758h-7.758zM162.909 186.182h7.758v7.758h-7.758zM170.667 186.182h7.758v7.758h-7.758zM186.182 186.182h7.758v7.758h-7.758zM201.697 186.182h7.758v7.758h-7.758zM224.97 186.182h7.758v7.758h-7.758z" style="fill:#000;shape-rendering:crispEdges"/><path d="M232.727 186.182h7.758v7.758h-7.758zM15.515 193.939h7.758v7.758h-7.758zM62.061 193.939h7.758v7.758h-7.758zM85.333 193.939h7.758v7.758h-7.758zM93.091 193.939h7.758v7.758h-7.758z" style="fill:#000;shape-rendering:crispEdges"/><path d="M100.848 193.939h7.758v7.758h-7.758zM108.606 193.939h7.758v7.758h-7.758zM116.364 193.939h7.758v7.758h-7.758z" style="fill:#000;shape-rendering:crispEdges"/><path d="M124.121 193.939h7.758v7.758h-7.758zM131.879 193.939h7.758v7.758h-7.758z" style="fill:#000;shape-rendering:crispEdges"/><path d="M139.636 193.939h7.758v7.758h-7.758zM155.152 193.939h7.758v7.758h-7.758z" style="fill:#000;shape-rendering:crispEdges"/><path d="M162.909 193.939h7.758v7.758h-7.758zM170.667 193.939h7.758v7.758h-7.758zM201.697 193.939h7.758v7.758h-7.758zM224.97 193.939h7.758v7.758h-7.758zM15.515 201.697h7.758v7.758h-7.758zM31.03 201.697h7.758v7.758H31.03z" style="fill:#000;shape-rendering:crispEdges"/><path d="M38.788 201.697h7.758v7.758h-7.758z" style="fill:#000;shape-rendering:crispEdges"/><path d="M46.545 201.697h7.758v7.758h-7.758zM62.061 201.697h7.758v7.758h-7.758zM77.576 201.697h7.758v7.758h-7.758z" style="fill:#000;shape-rendering:crispEdges"/><path d="M85.333 201.697h7.758v7.758h-7.758zM100.848 201.697h7.758v7.758h-7.758zM116.364 201.697h7.758v7.758h-7.758z" style="fill:#000;shape-rendering:crispEdges"/><path d="M124.121 201.697h7.758v7.758h-7.758zM131.879 201.697h7.758v7.758h-7.758zM147.394 201.697h7.758v7.758h-7.758zM170.667 201.697h7.758v7.758h-7.758z" style="fill:#000;shape-rendering:crispEdges"/><path d="M178.424 201.697h7.758v7.758h-7.758z" style="fill:#000;shape-rendering:crispEdges"/><path d="M186.182 201.697h7.758v7.758h-7.758z" style="fill:#000;shape-rendering:crispEdges"/><path d="M193.939 201.697h7.758v7.758h-7.758zM201.697 201.697h7.758v7.758h-7.758zM217.212 201.697h7.758v7.758h-7.758zM224.97 201.697h7.758v7.758h-7.758zM15.515 209.455h7.758v7.758h-7.758zM31.03 209.455h7.758v7.758H31.03z" style="fill:#000;shape-rendering:crispEdges"/><path d="M38.788 209.455h7.758v7.758h-7.758z" style="fill:#000;shape-rendering:crispEdges"/><path d="M46.545 209.455h7.758v7.758h-7.758zM62.061 209.455h7.758v7.758h-7.758zM100.848 209.455h7.758v7.758h-7.758zM116.364 209.455h7.758v7.758h-7.758zM139.636 209.455h7.758v7.758h-7.758zM155.152 209.455h7.758v7.758h-7.758z" style="fill:#000;shape-rendering:crispEdges"/><path d="M162.909 209.455h7.758v7.758h-7.758zM170.667 209.455h7.758v7.758h-7.758z" style="fill:#000;shape-rendering:crispEdges"/><path d="M178.424 209.455h7.758v7.758h-7.758z" style="fill:#000;shape-rendering:crispEdges"/><path d="M186.182 209.455h7.758v7.758h-7.758zM201.697 209.455h7.758v7.758h-7.758zM224.97 209.455h7.758v7.758h-7.758zM15.515 217.212h7.758v7.758h-7.758zM31.03 217.212h7.758v7.758H31.03z" style="fill:#000;shape-rendering:crispEdges"/><path d="M38.788 217.212h7.758v7.758h-7.758z" style="fill:#000;shape-rendering:crispEdges"/><path d="M46.545 217.212h7.758v7.758h-7.758zM62.061 217.212h7.758v7.758h-7.758zM77.576 217.212h7.758v7.758h-7.758z" style="fill:#000;shape-rendering:crispEdges"/><path d="M85.333 217.212h7.758v7.758h-7.758zM93.091 217.212h7.758v7.758h-7.758zM116.364 217.212h7.758v7.758h-7.758z" style="fill:#000;shape-rendering:crispEdges"/><path d="M124.121 217.212h7.758v7.758h-7.758zM131.879 217.212h7.758v7.758h-7.758zM147.394 217.212h7.758v7.758h-7.758zM162.909 217.212h7.758v7.758h-7.758zM170.667 217.212h7.758v7.758h-7.758zM217.212 217.212h7.758v7.758h-7.758zM224.97 217.212h7.758v7.758h-7.758zM15.515 224.97h7.758v7.758h-7.758zM62.061 224.97h7.758v7.758h-7.758zM77.576 224.97h7.758v7.758h-7.758z" style="fill:#000;shape-rendering:crispEdges"/><path d="M85.333 224.97h7.758v7.758h-7.758zM116.364 224.97h7.758v7.758h-7.758zM147.394 224.97h7.758v7.758h-7.758zM170.667 224.97h7.758v7.758h-7.758zM209.455 224.97h7.758v7.758h-7.758z" style="fill:#000;shape-rendering:crispEdges"/><path d="M217.212 224.97h7.758v7.758h-7.758zM15.515 232.727h7.758v7.758h-7.758zM23.273 232.727h7.758v7.758h-7.758z" style="fill:#000;shape-rendering:crispEdges"/><path d="M31.03 232.727h7.758v7.758H31.03z" style="fill:#000;shape-rendering:crispEdges"/><path d="M38.788 232.727h7.758v7.758h-7.758z" style="fill:#000;shape-rendering:crispEdges"/><path d="M46.545 232.727h7.758v7.758h-7.758z" style="fill:#000;shape-rendering:crispEdges"/><path d="M54.303 232.727h7.758v7.758h-7.758zM62.061 232.727h7.758v7.758h-7.758zM77.576 232.727h7.758v7.758h-7.758zM100.848 232.727h7.758v7.758h-7.758zM108.606 232.727h7.758v7.758h-7.758zM116.364 232.727h7.758v7.758h-7.758z" style="fill:#000;shape-rendering:crispEdges"/><path d="M124.121 232.727h7.758v7.758h-7.758zM131.879 232.727h7.758v7.758h-7.758zM155.152 232.727h7.758v7.758h-7.758zM217.212 232.727h7.758v7.758h-7.758zM224.97 232.727h7.758v7.758h-7.758z" style="fill:#000;shape-rendering:crispEdges"/></svg>