<svg width="72" height="46" fill="none" xmlns="http://www.w3.org/2000/svg"><g clip-path="url(#a)"><path d="M62.526 2.158a7.579 7.579 0 0 1 7.58 7.579v26.526a7.579 7.579 0 0 1-7.58 7.58H9.474a7.579 7.579 0 0 1-7.58-7.58V9.737a7.579 7.579 0 0 1 7.58-7.58h53.052Zm0-1.895H9.474A9.474 9.474 0 0 0 0 9.737v26.526a9.474 9.474 0 0 0 9.474 9.474h53.052A9.474 9.474 0 0 0 72 36.263V9.737A9.474 9.474 0 0 0 62.526.263Z" fill="#C6C6C6" stroke="#fff" stroke-width=".6"/><path d="M19.743 17.316a3.564 3.564 0 0 0-2.842-1.004h-3.922a.53.53 0 0 0-.53.454L10.856 26.79a.34.34 0 0 0 .322.379h1.894a.53.53 0 0 0 .512-.38l.436-2.728a.53.53 0 0 1 .53-.454h1.232a4.016 4.016 0 0 0 4.453-3.79 2.995 2.995 0 0 0-.493-2.501Zm-2.406 2.634c-.209 1.402-1.289 1.402-2.312 1.402h-.587l.398-2.634a.34.34 0 0 1 .322-.284h.284c.701 0 1.364 0 1.705.417a1.288 1.288 0 0 1 .19 1.099Zm11.254 0h-1.894a.305.305 0 0 0-.322.284v.53l-.133-.19a2.595 2.595 0 0 0-2.198-.795 4.301 4.301 0 0 0-4.187 3.79 3.617 3.617 0 0 0 .7 2.899 2.899 2.899 0 0 0 2.35.966 3.581 3.581 0 0 0 2.596-1.08v.511a.322.322 0 0 0 .322.38h1.686a.53.53 0 0 0 .53-.455l1.005-6.461a.322.322 0 0 0-.455-.436v.057Zm-2.614 3.619a2.103 2.103 0 0 1-2.122 1.8 1.553 1.553 0 0 1-1.251-.512 1.63 1.63 0 0 1-.303-1.326 2.122 2.122 0 0 1 2.103-1.895 1.573 1.573 0 0 1 1.25.53 1.628 1.628 0 0 1 .323 1.403Zm12.58-3.676h-1.894a.53.53 0 0 0-.455.246l-2.596 3.79-1.099-3.695a.569.569 0 0 0-.53-.398h-1.895a.341.341 0 0 0-.322.436l2.084 6.139-1.894 2.766a.322.322 0 0 0 .265.512h1.895a.55.55 0 0 0 .454-.228l6.253-9.113a.322.322 0 0 0-.265-.455Zm9.076-2.577a3.563 3.563 0 0 0-2.842-1.004H40.87a.53.53 0 0 0-.53.454L38.766 26.79a.322.322 0 0 0 .322.379h2.009a.36.36 0 0 0 .36-.323l.454-2.86a.53.53 0 0 1 .53-.455h1.251a4.036 4.036 0 0 0 4.453-3.79 3.05 3.05 0 0 0-.512-2.425Zm-2.387 2.69c-.227 1.403-1.288 1.403-2.33 1.403h-.588l.417-2.634a.303.303 0 0 1 .322-.284h.265c.701 0 1.384 0 1.725.416a1.288 1.288 0 0 1 .19 1.043v.056Zm11.236 0h-1.895a.322.322 0 0 0-.322.285v.53l-.133-.19a2.633 2.633 0 0 0-2.216-.795 4.34 4.34 0 0 0-4.188 3.79 3.62 3.62 0 0 0 .701 2.898 2.919 2.919 0 0 0 2.369.967 3.581 3.581 0 0 0 2.596-1.08v.511a.322.322 0 0 0 .322.38h1.686a.53.53 0 0 0 .53-.456l.91-6.574a.34.34 0 0 0-.36-.38v.114Zm-2.615 3.563a2.065 2.065 0 0 1-2.103 1.8 1.572 1.572 0 0 1-1.27-.512 1.612 1.612 0 0 1-.284-1.326 2.103 2.103 0 0 1 2.084-1.895 1.516 1.516 0 0 1 1.573 1.895v.038Zm6.954-7.314h-1.895a.34.34 0 0 0-.322.265l-1.516 10.27a.322.322 0 0 0 .322.379h1.61a.53.53 0 0 0 .531-.455l1.592-10.1a.342.342 0 0 0-.322-.36Z" fill="#000"/></g><defs><clipPath id="a"><path fill="#fff" d="M0 0h72v46H0z"/></clipPath></defs></svg>