<svg width="55" height="48" fill="none" xmlns="http://www.w3.org/2000/svg"><g clip-path="url(#a)"><path d="M54.219 21.542v-.013L35.378.064a.181.181 0 0 0-.242-.032L.093 22.41l-.039.06a.089.089 0 0 0-.02.025s-.026.026-.026.04v.026c0 .006-.006.02-.006.026v2.715c0 .04.013.079.04.111L17.215 47.93s.027.02.04.033c.006 0 .013.013.02.02 0 0 .045.019.071.019h.013s.04 0 .059-.013c.006 0 .013-.007.02-.013.006 0 .02 0 .026-.007L54.16 24.512a.184.184 0 0 0 .085-.156v-2.71c0-.039-.02-.078-.046-.11l.02.006ZM35.202.43l18.586 21.177-36.369 23.247-9.47-12.423h28.827a.187.187 0 0 0 .17-.11l2.357-5.289 6.406-14.264a.187.187 0 0 0-.013-.176.184.184 0 0 0-.156-.085H16.648a.194.194 0 0 0-.17.111L7.702 32.111.466 22.613 35.202.43ZM25.164 18.585l.229.496.078.28.04.288.019.32-.04.685-.097.366-.111.34-.15.287-.19.306-.209.268-.228.248-.248.229-.595.424-.633.346-.699.274-.758.235-.711.196-.353.059-.366.078-.32.04-.326.058-.327.04-.575.038-.241.04h-.242l-.209.02h-.333l3.311-8.063.066.013h.221l.85.15.444.117.241.079.222.052.229.098.712.346.209.13.228.17.386.346.17.17.17.202.13.229h.006Zm-5.623-1.808-4.989 11.208H11.3l3.683-8.186.02-.065.058-.098.033-.085.072-.085s.006-.013.013-.02l.033-.084.045-.046s.013-.02.02-.026l.033-.085.071-.085s.007-.013.014-.02l.032-.078.242-.32.032-.058.06-.046s.019-.02.025-.033l.033-.065.078-.078.027-.046.084-.091.033-.046.065-.052.02-.02.026-.046.163-.163.046-.032.046-.013s.032-.02.046-.033l.026-.046.026-.026.052-.02.117-.078.105-.033s.013 0 .02-.013l.104-.071.248-.124.066-.053.222-.098.078-.052.111-.039.098-.02s.033-.013.046-.026l.039-.039.091-.02.079-.032.098-.02s.02-.006.032-.013l.046-.026.333-.072s.013 0 .02-.006l.071-.033.066-.013h.098l.065-.02h.105l.058-.019h.118l.078-.02h.131l.085-.032h.156v-.04Zm-8.026 12.24.66 1.155a.186.186 0 0 0 .163.092h3.403s.02-.007.026-.007a.11.11 0 0 0 .065-.02c.013-.006.02-.019.026-.025.013-.014.026-.02.04-.04v-.019l1.991-4.426.542.96a.188.188 0 0 0 .17.104h.503l.157-.04 1.11-.065.28-.058.7-.079 1.083-.235 1.476-.463 1.039-.523.307-.202.3-.241.268-.248.47-.51.033-.045.32-.666.124-.327.098-.372V22.632l.02-.137.019-.822s0-.04-.007-.059v-.078l-.02-.06-.012-.058s0-.039-.013-.059l-.033-.196s-.026-.065-.033-.078l-.039-.078v-.013s0-.04-.013-.059l-.059-.176s-.026-.052-.045-.072l-.072-.144s-.013-.032-.02-.045L25.4 18.44c-.032-.065-.098-.085-.17-.085l-.065-.11-.183-.223-.176-.176-.398-.359-.242-.176-.222-.144-.725-.352-.248-.098-.229-.059-.241-.078-.45-.118-.569-.117-.3-.04h-.216l-.098-.019h-.04a.085.085 0 0 0-.077.052l-.431 1.038-.444-.79a.195.195 0 0 0-.17-.098c-.066 0-.124.046-.157.105h-.222l-.085.032h-.098l-.078.02h-.118l-.059.02H18.77l-.064.02h-.085l-.098.019s-.013 0-.02.006l-.065.033-.34.078s-.02.007-.032.013l-.046.033-.098.02-.079.032-.098.02s-.032.013-.045.026l-.04.04-.084.019-.137.045-.32.164-.066.052-.241.124-.105.072-.033.013 1.006-2.246H44.13l-5.198 11.66-1.17-1.953a.182.182 0 0 0-.137-.091.193.193 0 0 0-.156.052l-.046.046-4.846-.033 2.75-6.169a.194.194 0 0 0-.007-.17l-1.13-2.01a.203.203 0 0 0-.17-.098c-.065 0-.123.046-.156.104h-.183l-.085.033h-.124l-.059.02h-.091l-.085.02h-.098l-.078.019h-.098l-.098.02s-.013 0-.02.006l-.059.032-.346.079-.085.032-.098.027-.065.032-.085.013s-.02 0-.026.013l-.085.052-.085.02s-.013 0-.02.007l-.73.378-.112.072-.104.033s-.026.013-.033.02l-.046.045-.091.04s-.013.006-.02.012l-.085.085-.104.052-.033.026-.032.046-.066.052-.02.02-.025.046-.183.182-.052.072-.066.066-.11.15-.06.058s-.013.013-.013.02l-.026.065-.202.261-.438.719-.039.11-.013.066-3.657 8.14h-.033a.186.186 0 0 0-.163.092.195.195 0 0 0 0 .19l1.15 2.01a.186.186 0 0 0 .163.091h3.441s.02-.006.033-.013c.02 0 .04-.006.059-.02.013-.006.02-.019.026-.026.013-.013.026-.02.032-.032v-.013l.418-.947.497.881a.171.171 0 0 0 .13.092l.79.02 1.712-.196s.032-.007.052-.02l.672-.157s.04-.006.053-.02l.379-.123.156-.033s.053-.02.072-.033l.692-.313 1.267-.705.092-.078.15-.092 1.319-1.038-2.077 4.661H10.144l1.365-3.042.006.033Zm22.407-12.24-5.01 11.208H25.68l3.677-8.186.046-.15.391-.64.242-.32.033-.065.059-.059.11-.15.066-.065.052-.072.19-.19.032-.045.065-.052.02-.02.026-.039.098-.046.026-.013.085-.091.072-.026.033-.02.045-.046.098-.032s.013 0 .02-.013l.11-.072.713-.366.085-.02s.02 0 .026-.012l.085-.052.084-.014s.014 0 .02-.006l.059-.033.085-.02.085-.032.352-.085.072-.032.065-.013h.098l.079-.02h.091l.085-.02h.098l.059-.02H33.667l.078-.032h.177v-.02Zm3.448 8.369-.137.117-.111.13-.13.112-.151.104-.111.111-.124.111-.15.085-.105.091-.163.098-.144.098-.104.092-.268.163-.111.091-.137.059-.105.072-.124.065-.228.15-.105.033s-.013 0-.02.013l-.104.072-.111.039-.222.098-.17.098-.209.085-.085.052-.143.04h-.02l-.098.051-.228.046-.183.072-.542.104-.079.033-.444.085-.085.032h-.11l-.223.04h-.11l-.105.02h-.13l-.105.019h-.993l1.24-2.82 5.774.039h.013Z" fill="#666" stroke="#666" stroke-width=".356"/></g><defs><clipPath id="a"><path fill="#fff" transform="translate(.002)" d="M0 0h54.243v48.001H0z"/></clipPath></defs></svg>