<svg width="97" height="44" fill="none" xmlns="http://www.w3.org/2000/svg"><g clip-path="url(#a)"><path d="M72.174 22.684c3.333-2.843 6.333-6.065 9.161-9.398-1.28 4.406-3.759 8.465-7.106 11.593-.79.631-1.516 1.375-2.402 1.912-2.89 1.959-6.3 3.222-9.807 3.252l.08-.062c2.763-1.61 5.416-3.395 7.895-5.417.727-.617 1.5-1.2 2.18-1.88Z" fill="#666" stroke="#666" stroke-width=".054" stroke-miterlimit="10"/><path d="M84.352 4.396C84.998 3.07 85.615 1.728 86.279.4c.174 1.358.362 2.7.552 4.059 1.31-.442 2.59-.964 3.916-1.343-.931 1.138-1.832 2.306-2.733 3.475.979.774 1.96 1.515 2.921 2.289-1.31.142-2.621.205-3.932.317-.047 1.39-.142 2.796-.22 4.2-.758-1.01-1.453-2.053-2.18-3.08-1.09.996-2.195 1.99-3.252 3.017.412-1.421.821-2.844 1.216-4.264a290.731 290.731 0 0 1-3.807-.507 410.43 410.43 0 0 0 3.712-2.116c-.506-1.216-1.026-2.417-1.515-3.633 1.12.552 2.274 1.026 3.395 1.58v.002ZM6.551 18.23c1.453-.394 2.969-.551 4.47-.536 1.658-.015 3.333.095 4.96.38-.236.63-.474 1.247-.678 1.879-2.354-.175-4.786-.332-7.123.205-.71.19-1.627.474-1.817 1.31-.032.632.552.996 1.091 1.154 1.675.457 3.475.394 5.055 1.138.741.331 1.373.978 1.5 1.8.205 1.28-.158 2.685-1.058 3.649-1.027 1.105-2.544 1.595-3.98 1.864-2.985.474-6.065.222-8.971-.521.157-.664.347-1.326.505-1.99 2.51.317 5.085.711 7.596.19.948-.205 2.022-.712 2.194-1.77.19-.694-.427-1.248-1.026-1.422-1.595-.49-3.3-.38-4.865-.964-.679-.252-1.343-.711-1.595-1.405-.474-1.216-.032-2.654.916-3.507.821-.712 1.8-1.169 2.828-1.453h-.002Z" fill="#666"/><path fill-rule="evenodd" clip-rule="evenodd" d="M49.335 12.122c-.702.047-1.408.094-2.115.155-.148.768-.299 1.538-.45 2.31-.188.96-.377 1.924-.56 2.887l-.6-.019c-2.534-.081-5.162-.166-7.519.903-2.132.884-3.854 2.748-4.453 4.99-.567 1.832-.505 3.996.711 5.56 1.184 1.482 3.11 2.099 4.943 2.194 2.07.095 4.296-.22 5.986-1.5 1.595-1.169 2.479-3.096 2.858-4.99.804-4.185 1.595-8.371 2.384-12.572-.393.029-.788.055-1.185.082Zm-3.66 7.609c-2.007-.22-4.14-.237-5.971.711h.001c-1.373.695-2.289 2.07-2.653 3.538-.267 1.043-.442 2.226.08 3.222.426.869 1.405 1.31 2.321 1.39 1.31.16 2.779-.047 3.79-.978.821-.727 1.215-1.817 1.405-2.876.147-.7.288-1.404.43-2.109.193-.964.387-1.93.596-2.898ZM59.509 17.537c-2.639-.065-5.402.709-7.33 2.573v-.002c-1.515 1.39-2.416 3.397-2.51 5.45-.11 1.28.222 2.606 1.043 3.601.996 1.311 2.606 2.038 4.201 2.29 2.432.411 5.053 0 7.107-1.406l.08-.062c-2.37.254-4.943.316-7.107-.837-1.373-.758-2.037-2.386-1.88-3.901 2.731.49 5.637.601 8.275-.395 1.106-.442 2.197-1.151 2.749-2.242.599-1.246.459-2.936-.632-3.884-1.09-.933-2.606-1.153-3.996-1.186Zm.597 2.211c-1.215-.317-2.526-.11-3.647.395h-.002c-1.313.6-2.306 1.77-2.875 3.08 1.991.332 4.106.49 6.065-.158.854-.3 1.723-1.073 1.58-2.069-.03-.631-.552-1.106-1.12-1.248ZM29.564 18.547c-1.643-.963-3.65-1.105-5.497-.916v-.002c-2.496.255-4.945 1.406-6.555 3.365-1.295 1.595-2.005 3.695-1.8 5.75.142 1.452 1.026 2.78 2.274 3.506 1.61.964 3.553 1.106 5.37.964 2.763-.237 5.512-1.596 7.107-3.917 1.058-1.548 1.642-3.505 1.39-5.385-.188-1.405-1.074-2.67-2.29-3.365Zm-2.26 2.068c-.978-.806-2.368-.916-3.569-.632-2.748.632-4.548 3.475-4.438 6.191.032.649.254 1.296.711 1.77.649.68 1.628.9 2.544.9 1.675.063 3.364-.743 4.39-2.069.742-.933 1.169-2.101 1.311-3.27.125-1.026-.142-2.179-.948-2.89ZM93.4 18.248c-1.769-.838-3.79-.886-5.686-.617h-.001c-2.78.41-5.434 2.005-6.855 4.469-.884 1.563-1.341 3.427-.979 5.212.285 1.453 1.343 2.686 2.686 3.317 1.737.822 3.727.916 5.607.664 2.67-.38 5.276-1.817 6.744-4.106 1.028-1.595 1.58-3.57 1.248-5.45-.252-1.53-1.358-2.858-2.763-3.49Zm-1.989 2.226c-.963-.71-2.276-.773-3.412-.521l.002.002c-2.89.631-4.785 3.68-4.533 6.538.078.931.694 1.8 1.563 2.132 1.263.504 2.716.424 3.964-.08 2.226-.9 3.602-3.316 3.57-5.67-.016-.915-.395-1.849-1.154-2.4Z" fill="#666"/><path d="m66.144 17.697-1.029-.003v.002a67.595 67.595 0 0 0 4.88 6.87c.212-.18.429-.357.645-.535.526-.43 1.054-.864 1.535-1.345l.08-.08a63.647 63.647 0 0 1-4.044-4.912c-.685.01-1.377.007-2.067.003ZM73.472 25.519c-.522.453-1.047.909-1.644 1.272 1.01 1.248 2.114 2.416 3.252 3.57.097.09.188.187.277.282.19.203.377.403.624.553.68.015 1.362.012 2.045.008.699-.005 1.398-.009 2.094.008a547.986 547.986 0 0 1-5.891-6.333c-.257.205-.507.422-.757.64Z" fill="#666"/><path d="M84.352 4.396C84.998 3.07 85.615 1.728 86.279.4c.174 1.358.362 2.7.552 4.059 1.31-.442 2.59-.964 3.916-1.343-.931 1.138-1.832 2.306-2.733 3.475.979.774 1.96 1.515 2.921 2.289-1.31.142-2.621.205-3.932.317-.047 1.39-.142 2.796-.22 4.2-.758-1.01-1.453-2.053-2.18-3.08-1.09.996-2.195 1.99-3.252 3.017.412-1.421.821-2.844 1.216-4.264a290.731 290.731 0 0 1-3.807-.507 410.43 410.43 0 0 0 3.712-2.116c-.506-1.216-1.026-2.417-1.515-3.633 1.12.552 2.274 1.026 3.395 1.58v.002ZM6.551 18.23c1.453-.394 2.969-.551 4.47-.536 1.658-.015 3.333.095 4.96.38-.236.63-.474 1.247-.678 1.879-2.354-.175-4.786-.332-7.123.205-.71.19-1.627.474-1.817 1.31-.032.632.552.996 1.091 1.154 1.675.457 3.475.394 5.055 1.138.741.331 1.373.978 1.5 1.8.205 1.28-.158 2.685-1.058 3.649-1.027 1.105-2.544 1.595-3.98 1.864-2.985.474-6.065.222-8.971-.521.157-.664.347-1.326.505-1.99 2.51.317 5.085.711 7.596.19.948-.205 2.022-.712 2.194-1.77.19-.694-.427-1.248-1.026-1.422-1.595-.49-3.3-.38-4.865-.964-.679-.252-1.343-.711-1.595-1.405-.474-1.216-.032-2.654.916-3.507.821-.712 1.8-1.169 2.828-1.453h-.002Z" stroke="#666" stroke-width=".054" stroke-miterlimit="10"/><path clip-rule="evenodd" d="M49.335 12.122c-.702.047-1.408.094-2.115.155-.148.768-.299 1.538-.45 2.31-.188.96-.377 1.924-.56 2.887l-.6-.019c-2.534-.081-5.162-.166-7.519.903-2.132.884-3.854 2.748-4.453 4.99-.567 1.832-.505 3.996.711 5.56 1.184 1.482 3.11 2.099 4.943 2.194 2.07.095 4.296-.22 5.986-1.5 1.595-1.169 2.479-3.096 2.858-4.99.804-4.185 1.595-8.371 2.384-12.572-.393.029-.788.055-1.185.082Zm-3.66 7.609c-2.007-.22-4.14-.237-5.971.711h.001c-1.373.695-2.289 2.07-2.653 3.538-.267 1.043-.442 2.226.08 3.222.426.869 1.405 1.31 2.321 1.39 1.31.16 2.779-.047 3.79-.978.821-.727 1.215-1.817 1.405-2.876.147-.7.288-1.404.43-2.109.193-.964.387-1.93.596-2.898ZM59.509 17.537c-2.639-.065-5.402.709-7.33 2.573v-.002c-1.515 1.39-2.416 3.397-2.51 5.45-.11 1.28.222 2.606 1.043 3.601.996 1.311 2.606 2.038 4.201 2.29 2.432.411 5.053 0 7.107-1.406l.08-.062c-2.37.254-4.943.316-7.107-.837-1.373-.758-2.037-2.386-1.88-3.901 2.731.49 5.637.601 8.275-.395 1.106-.442 2.197-1.151 2.749-2.242.599-1.246.459-2.936-.632-3.884-1.09-.933-2.606-1.153-3.996-1.186Zm.597 2.211c-1.215-.317-2.526-.11-3.647.395h-.002c-1.313.6-2.306 1.77-2.875 3.08 1.991.332 4.106.49 6.065-.158.854-.3 1.723-1.073 1.58-2.069-.03-.631-.552-1.106-1.12-1.248ZM29.564 18.547c-1.643-.963-3.65-1.105-5.497-.916v-.002c-2.496.255-4.945 1.406-6.555 3.365-1.295 1.595-2.005 3.695-1.8 5.75.142 1.452 1.026 2.78 2.274 3.506 1.61.964 3.553 1.106 5.37.964 2.763-.237 5.512-1.596 7.107-3.917 1.058-1.548 1.642-3.505 1.39-5.385-.188-1.405-1.074-2.67-2.29-3.365Zm-2.26 2.068c-.978-.806-2.368-.916-3.569-.632-2.748.632-4.548 3.475-4.438 6.191.032.649.254 1.296.711 1.77.649.68 1.628.9 2.544.9 1.675.063 3.364-.743 4.39-2.069.742-.933 1.169-2.101 1.311-3.27.125-1.026-.142-2.179-.948-2.89ZM93.4 18.248c-1.769-.838-3.79-.886-5.686-.617h-.001c-2.78.41-5.434 2.005-6.855 4.469-.884 1.563-1.341 3.427-.979 5.212.285 1.453 1.343 2.686 2.686 3.317 1.737.822 3.727.916 5.607.664 2.67-.38 5.276-1.817 6.744-4.106 1.028-1.595 1.58-3.57 1.248-5.45-.252-1.53-1.358-2.858-2.763-3.49Zm-1.989 2.226c-.963-.71-2.276-.773-3.412-.521l.002.002c-2.89.631-4.785 3.68-4.533 6.538.078.931.694 1.8 1.563 2.132 1.263.504 2.716.424 3.964-.08 2.226-.9 3.602-3.316 3.57-5.67-.016-.915-.395-1.849-1.154-2.4Z" stroke="#666" stroke-width=".054" stroke-miterlimit="10"/><path d="m66.144 17.697-1.029-.003v.002a67.595 67.595 0 0 0 4.88 6.87c.212-.18.429-.357.645-.535.526-.43 1.054-.864 1.535-1.345l.08-.08a63.647 63.647 0 0 1-4.044-4.912c-.685.01-1.377.007-2.067.003ZM73.472 25.519c-.522.453-1.047.909-1.644 1.272 1.01 1.248 2.114 2.416 3.252 3.57.097.09.188.187.277.282.19.203.377.403.624.553.68.015 1.362.012 2.045.008.699-.005 1.398-.009 2.094.008a547.986 547.986 0 0 1-5.891-6.333c-.257.205-.507.422-.757.64Z" stroke="#666" stroke-width=".054" stroke-miterlimit="10"/></g><defs><clipPath id="a"><path fill="#fff" transform="translate(0 .4)" d="M0 0h96.002v43.201H0z"/></clipPath></defs></svg>