<svg width="72" height="46" fill="none" xmlns="http://www.w3.org/2000/svg"><g clip-path="url(#a)"><path d="M62.526 2.158a7.579 7.579 0 0 1 7.58 7.579v26.526a7.579 7.579 0 0 1-7.58 7.58H9.474a7.579 7.579 0 0 1-7.58-7.58V9.737a7.579 7.579 0 0 1 7.58-7.58h53.052Zm0-1.895H9.474A9.474 9.474 0 0 0 0 9.737v26.526a9.474 9.474 0 0 0 9.474 9.474h53.052A9.474 9.474 0 0 0 72 36.263V9.737A9.474 9.474 0 0 0 62.526.263Z" fill="#C6C6C6" stroke="#fff" stroke-width=".6"/><g clip-path="url(#b)" fill="#000"><path d="M60.38 29.782V27H62v7.807h-1.58l-.048-.576c-.425.231-.842.589-1.322.692-1.12.242-2.099-.293-2.535-1.331-.453-1.08-.456-2.184.022-3.267.658-1.49 2.723-1.96 3.844-.542l-.001-.001Zm-2.593 2.133c.095.35.146.719.291 1.048.193.437.558.709 1.09.685.533-.023.859-.33 1.013-.783.104-.307.175-.638.18-.96.011-.951-.525-1.657-1.223-1.672-.746-.017-1.274.664-1.35 1.68v.002ZM20.712 31.168c.051-.508-.01-.892-.582-1.025-.607-.14-1.093.036-1.367.471a.688.688 0 0 1-.417.29c-.297.046-.608.016-.912.008-.077-.003-.154-.036-.229-.055.14-1.209.795-1.82 2.174-1.926a6.073 6.073 0 0 1 1.69.125c.86.182 1.326.826 1.349 1.777.023.927-.006 1.856.013 2.783.008.378.08.757.122 1.142-1.167.262-1.563.143-1.797-.606-.567.574-1.23.876-2.064.818-.898-.063-1.545-.561-1.661-1.336-.158-1.053.207-1.756 1.118-2.052.4-.13.827-.186 1.246-.254.417-.066.84-.104 1.316-.162l.001.002Zm.061.981c-.54.097-1.04.151-1.518.284-.39.108-.762.39-.578.797.11.245.522.503.81.515.823.035 1.291-.297 1.286-1.596ZM49.584 31.178c-.016-.541-.092-.962-.704-1.047-.56-.076-1.055-.034-1.32.553-.047.105-.218.214-.34.223-.38.03-.764.01-1.143.01-.042-.966.485-1.709 1.481-1.86a7.897 7.897 0 0 1 2.344.02c.83.124 1.298.785 1.329 1.657.03.908.004 1.818.024 2.728.01.436.072.873.111 1.316-1.27.217-1.536.136-1.781-.637-.576.606-1.26.897-2.109.828-.872-.072-1.504-.558-1.626-1.309-.167-1.026.215-1.816 1.111-2.063.696-.193 1.431-.253 2.15-.37.137-.023.276-.028.474-.048l-.001-.001Zm-.034.954c-.574.128-1.129.187-1.618.39-.224.09-.474.492-.43.7.045.216.409.486.67.527.96.155 1.489-.458 1.379-1.617h-.001ZM25.587 34.792h-1.602v-5.68h1.558l.064.502c.529-.229 1.04-.571 1.598-.667 1.237-.212 2.221.629 2.268 1.905.046 1.293.01 2.589.01 3.932h-1.65c0-.833.002-1.678 0-2.523a25.471 25.471 0 0 0-.023-1.102c-.021-.469-.2-.835-.75-.907-.552-.072-1.028.069-1.263.582a2.32 2.32 0 0 0-.2.892c-.024 1.003-.008 2.007-.008 3.065l-.002.001ZM30.417 32.954c.424 0 .85-.021 1.271.012.138.01.308.134.388.253.377.549 1.424.768 1.994.378.115-.078.243-.262.219-.368a.586.586 0 0 0-.327-.358c-.68-.25-1.373-.463-2.061-.69-.705-.233-1.314-.55-1.329-1.38-.012-.74.5-1.381 1.363-1.662 1.003-.328 1.996-.32 2.925.227.555.326.827.823.872 1.514-.45 0-.87.013-1.288-.01-.11-.005-.248-.099-.316-.19-.369-.494-1.138-.686-1.695-.375-.136.077-.267.249-.286.392-.01.081.193.236.328.28.765.25 1.544.464 2.308.716 1.225.403 1.527 1.565.661 2.492-.94 1.006-3.48 1.114-4.463.138-.327-.325-.488-.802-.725-1.21l.159-.157.002-.002ZM44.88 32.71c-.245 1.516-1.197 2.268-2.751 2.267-1.535-.001-2.53-.799-2.754-2.174-.134-.818-.112-1.614.236-2.382.463-1.023 1.54-1.587 2.834-1.496 1.275.09 2.12.691 2.398 1.71.034.127.034.264.06.482-.467 0-.905.024-1.337-.014-.132-.011-.313-.164-.36-.291-.167-.441-.463-.655-.957-.65-.501.003-.864.213-1.057.644-.342.762-.376 1.567-.02 2.303.146.3.614.582.969.628.286.036.8-.232.9-.48.21-.52.54-.59 1.02-.549.258.022.52.004.821.004l-.001-.002ZM9.72 30.18 9 30.124v-1.007l.7-.098v-1.412h1.662v1.402l1.017.103v.999l-.969.072c0 1.083-.036 2.178.04 3.264.012.164.548.297.918.483v1.003c-.56 0-1.108.05-1.639-.015-.5-.062-.858-.386-.897-.888-.064-.806-.085-1.616-.11-2.424-.015-.46-.003-.922-.003-1.43v.002ZM54.058 34.803h-1.587v-5.705h1.547l.077.695c.513-.546 1.013-.992 1.843-.845v1.518c-.045.02-.079.046-.114.048-1.496.085-1.766.358-1.766 1.792v2.496ZM14.914 29.81c.53-.574 1.025-1.023 1.854-.845v1.486c-.05.026-.082.059-.116.06-1.46.057-1.782.38-1.785 1.797-.003.81 0 1.622 0 2.48h-1.573v-5.675h1.523l.096.697h.001ZM38.543 33.664c-.001.476-.482.924-.977.911-.493-.013-.947-.483-.935-.968.012-.5.41-.88.924-.887.58-.007.99.385.988.944Z"/></g><g clip-path="url(#c)" fill="#000"><path d="M43.996 16.424c.076 3.054-1.047 5.541-3.633 7.198-2.865 1.838-5.864 1.837-8.73-.002-2.583-1.658-3.708-4.144-3.63-7.204h2.073c-.116 1.965.506 3.633 1.96 4.953 1.262 1.145 2.78 1.636 4.47 1.496a5.923 5.923 0 0 0 5.406-6.44h2.084v-.001Z"/><path d="M37.483 21.358H34.53v-4.91h-2.652V13.98h8.244v2.45h-2.639v4.927Z"/><path d="M28.572 14.039a7.711 7.711 0 0 1 2.169-3.074c1.237-1.08 2.68-1.736 4.32-1.913 4.57-.492 7.507 2.615 8.352 4.984-.07.004-.135.012-.2.013-.618 0-1.236-.005-1.853.004-.145.002-.221-.048-.297-.168-.864-1.366-2.066-2.29-3.65-2.66-1.89-.442-3.617-.063-5.145 1.147a5.637 5.637 0 0 0-1.335 1.518c-.068.112-.14.165-.28.163-.624-.009-1.25-.004-1.874-.004-.06 0-.121-.006-.208-.01Z"/></g></g><defs><clipPath id="a"><path fill="#fff" d="M0 0h72v46H0z"/></clipPath><clipPath id="b"><path fill="#fff" transform="translate(9 27)" d="M0 0h53v8H0z"/></clipPath><clipPath id="c"><path fill="#fff" transform="translate(28 9)" d="M0 0h16v16H0z"/></clipPath></defs></svg>