<svg width="36" height="44" fill="none" xmlns="http://www.w3.org/2000/svg"><g clip-path="url(#a)" fill="#666"><path d="M21.3 18.748c.268 1.582 1.636 2.74 3.221 2.793l-.002.002c.115-.025.23-.046.346-.067.25-.045.498-.09.734-.173 1.857-.655 2.718-2.849 1.877-4.74-.841-1.892-3.197-2.543-4.85-1.304-1.162.87-1.566 2.073-1.326 3.49Z"/><path fill-rule="evenodd" clip-rule="evenodd" d="M35.747.4H.245v35.379h35.502V.399ZM21.739 23.195a25.563 25.563 0 0 0-.241-.145V24.1c-.001.895-.002 1.791.005 2.687.002.203-.061.277-.26.32-.575.122-1.148.256-1.72.389h-.002l-.688.16c-.017.005-.035.005-.06.005l-.055.002a4.133 4.133 0 0 0-.006-.074c-.005-.055-.009-.109-.009-.162 0-5.024 0-10.05-.004-15.073 0-.186.045-.268.242-.313.53-.119 1.059-.248 1.588-.379.25-.061.499-.123.75-.183.041-.01.084-.016.138-.025l.09-.014v1.611l.078-.03c.04-.016.069-.027.095-.042 2.75-1.71 6.222-.862 7.904 1.931 1.734 2.883.808 6.697-2.085 8.362-1.912 1.1-3.854 1.031-5.76-.078ZM17.193 7.869l.064-.006h.002l.004.075c.003.047.005.09.005.133v3.657c-.001 2.438-.002 4.877 0 7.316.002 1.306-.398 2.456-1.31 3.405-.79.82-1.776 1.282-2.887 1.475-1.23.214-2.445.164-3.616-.31-1.551-.63-2.495-1.783-2.846-3.407a7.578 7.578 0 0 1-.16-1.548c-.012-2.605-.011-5.21-.01-7.815V8.7c0-.129 0-.23.171-.266.571-.12 1.142-.245 1.712-.37l.856-.188c.03-.006.059-.01.1-.015.02-.003.043-.005.07-.01V10.915c0 2.504 0 5.007.009 7.51 0 .391.048.79.14 1.169.22.92.825 1.45 1.758 1.604.496.083.995.083 1.483-.045.867-.229 1.334-.843 1.485-1.688.094-.532.132-1.079.133-1.618.01-2.488.008-4.975.005-7.463v-1.67c0-.136-.001-.243.182-.28.6-.125 1.2-.257 1.799-.388h.001c.249-.055.498-.11.747-.163.032-.006.064-.01.103-.013Z"/><path d="M14.608 43.555c.366-.026.697-.049 1.07-.073l.003-.002v-.275l.013-.83c.009-.643.018-1.287.034-1.93.01-.381.294-.671.64-.649.31.02.577.1.567.642-.013.673-.01 1.348-.007 2.022v.001l.002.831v.259l.438-.03c.213-.016.42-.03.632-.044V40.13c0-.98-.82-1.507-1.751-1.275-.194.049-.372.16-.557.276-.086.055-.174.11-.266.16-.253-.26-.576-.475-1.03-.49-.462-.014-.776.205-1.09.585v-.544l-.245.022a4.62 4.62 0 0 1-.51.03c-.197-.003-.267.043-.267.26.008 1.043.007 2.086.006 3.128v1.27l1.07-.071v-.257l-.003-.656a54.13 54.13 0 0 1 .01-1.686c.007-.265.07-.54.163-.79.095-.249.384-.345.65-.277.331.088.428.207.428.54v3.199Z"/><path fill-rule="evenodd" clip-rule="evenodd" d="M19.817 39.236a.365.365 0 0 1 .034-.003c.017-.002.03-.003.04-.01 1.106-.99 2.887-.19 3.235 1.321.193.843.04 1.61-.523 2.266-.396.464-.914.718-1.533.778-1.332.13-2.201-1.047-2.268-2.023-.036-.5-.041-1.003-.047-1.505v-.002a96.14 96.14 0 0 1-.002-1.113c.002-.44.003-.878-.003-1.317-.004-.21.031-.303.273-.3.178.003.357-.027.54-.058.084-.014.168-.028.255-.04v2.006Zm1.236 3.334c.062-.026.126-.048.191-.07.136-.046.271-.093.382-.173.644-.466.715-1.547.156-2.116-.375-.383-.831-.458-1.282-.195-.43.25-.617.643-.643 1.133-.04.731.51 1.393 1.196 1.421ZM9.275 43.594c1.46.102 2.566-1.22 2.477-2.378l-.002-.002c.082-1.33-1.1-2.352-2.15-2.413-1.458-.086-2.528 1.094-2.526 2.39a2.402 2.402 0 0 0 2.201 2.403Zm.162-1.065c-.676 0-1.31-.549-1.314-1.324v.001a1.324 1.324 0 0 1 1.303-1.336c.718-.001 1.267.626 1.308 1.234.054.81-.633 1.425-1.297 1.425ZM28.299 41.212c.09 1.168-1.024 2.482-2.471 2.383a2.401 2.401 0 0 1-2.205-2.398c-.006-1.302 1.07-2.478 2.52-2.395 1.056.062 2.234 1.085 2.155 2.41Zm-3.629-.006a1.323 1.323 0 0 0 1.314 1.323c.662 0 1.349-.616 1.295-1.427-.041-.61-.597-1.246-1.332-1.232a1.327 1.327 0 0 0-1.279 1.336h.002Z"/><path d="M31.64 42.985v.568l.004.002.262-.023c.181-.016.35-.032.52-.03.193.004.25-.052.25-.25a457.286 457.286 0 0 1-.005-3.293v-.943a1.76 1.76 0 0 0-.007-.135 5.035 5.035 0 0 1-.006-.082l-.5.058-.557.065v.249l.002.617c.002.515.005 1.03-.007 1.545-.01.39-.047.79-.391 1.064-.39.311-1.029.315-1.189-.318a2.253 2.253 0 0 1-.063-.547 182.31 182.31 0 0 1-.005-1.856l.001-.619v-.262c-.091.012-.18.025-.265.038-.2.03-.387.057-.576.063-.19.005-.235.065-.235.245.004.397.002.793 0 1.19-.003.583-.006 1.168.01 1.752.033 1.21.846 1.658 1.928 1.474.344-.06.591-.269.83-.572ZM5.998 43.058v-4.512h.363c.298-.002.587-.002.877.002.13.001.19-.03.186-.174-.01-.282-.008-.563 0-.846.005-.138-.047-.186-.18-.18-.094.003-.187.002-.281 0h-.647c-.841-.001-1.683-.001-2.524.005-.078 0-.212.054-.227.108-.072.257-.129.518-.188.79l-.065.295h1.57v4.994c.047 0 .092 0 .134.002.078.001.15.003.221-.002.051-.004.101-.012.152-.02.058-.01.117-.02.176-.021h.011c.211-.009.317-.013.37-.068.052-.055.052-.16.052-.373Z"/></g><defs><clipPath id="a"><path fill="#fff" transform="translate(.245 .4)" d="M0 0h35.502v43.201H0z"/></clipPath></defs></svg>