<svg width="72" height="46" fill="none" xmlns="http://www.w3.org/2000/svg"><g clip-path="url(#a)"><path d="M62.526 2.158a7.579 7.579 0 0 1 7.58 7.579v26.526a7.579 7.579 0 0 1-7.58 7.58H9.474a7.579 7.579 0 0 1-7.58-7.58V9.737a7.579 7.579 0 0 1 7.58-7.58h53.052Zm0-1.895H9.474A9.474 9.474 0 0 0 0 9.737v26.526a9.474 9.474 0 0 0 9.474 9.474h53.052A9.474 9.474 0 0 0 72 36.263V9.737A9.474 9.474 0 0 0 62.526.263Z" fill="#C6C6C6" stroke="#fff" stroke-width=".6"/><path d="m29.861 16.482-5.437 13.055h-3.581l-2.634-10.326a1.42 1.42 0 0 0-.796-1.156 14.567 14.567 0 0 0-3.297-1.118v-.379H19.8a1.592 1.592 0 0 1 1.554 1.345l1.402 7.58 3.486-8.887 3.62-.114Zm13.889 8.792c0-3.43-4.737-3.62-4.7-5.173 0-.454.456-.966 1.422-1.08a6.29 6.29 0 0 1 3.316.569l.587-2.767a9.339 9.339 0 0 0-3.145-.568c-3.316 0-5.684 1.762-5.684 4.32 0 1.895 1.667 2.918 2.937 3.543 1.269.625 1.743 1.061 1.743 1.63 0 .871-1.042 1.25-2.009 1.269a6.935 6.935 0 0 1-3.448-.815l-.663 2.861c1.208.465 2.494.696 3.79.682 3.523 0 5.816-1.743 5.835-4.471h.019Zm8.735 4.263h3.088l-2.69-13.055H50.04a1.553 1.553 0 0 0-1.44.967l-5.02 12.088h3.524l.682-1.895h4.3l.399 1.895Zm-3.79-4.623 1.781-4.889 1.061 4.87-2.842.019Zm-14.097-8.432-2.766 13.055h-3.297l2.767-13.055h3.296Z" fill="#000"/></g><defs><clipPath id="a"><path fill="#fff" d="M0 0h72v46H0z"/></clipPath></defs></svg>